<svg id="_09" data-name="09" xmlns="http://www.w3.org/2000/svg" xmlns:xlink="http://www.w3.org/1999/xlink" viewBox="0 0 4680 3120"><defs><style>.cls-1,.cls-27,.cls-35,.cls-4{fill:none;}.cls-2{fill:#fff;}.cls-3{fill:#a8b0f3;}.cls-4{stroke:#cfd4ff;stroke-width:15px;}.cls-27,.cls-4{stroke-linecap:round;}.cls-35,.cls-4{stroke-miterlimit:10;}.cls-5{opacity:0.55;}.cls-6{fill:#e9ebfd;}.cls-7{fill:#dcdfff;}.cls-8{fill:#f1f3ff;}.cls-9{fill:#9098e6;}.cls-10,.cls-29{opacity:0.63;}.cls-11{fill:#e2e5fc;}.cls-12{fill:#bec3f8;}.cls-13{fill:#3d876c;}.cls-14{fill:#94af51;}.cls-15{opacity:0.57;}.cls-16{fill:#ffd2d2;}.cls-17{fill:#fc86b4;}.cls-18{fill:#fcb9b9;}.cls-19{fill:#1639a8;}.cls-20{fill:#f1327e;}.cls-21,.cls-29{fill:#cc1d42;}.cls-22{fill:#231f20;opacity:0.3;}.cls-23{fill:#b2193d;}.cls-24{fill:#2c7d94;}.cls-25{fill:#172a99;}.cls-26{clip-path:url(#clip-path);}.cls-27{stroke:#fff;stroke-linejoin:round;stroke-width:1.27px;}.cls-28{fill:#fd6732;}.cls-30{fill:#ff5095;}.cls-31{fill:#51525f;}.cls-32{fill:#efacac;}.cls-33{fill:#272b5d;}.cls-34{fill:#4a5bf1;}.cls-35{stroke:#2b2b2b;stroke-width:2px;}</style><clipPath id="clip-path" transform="translate(0 0)"><path class="cls-1" d="M3095.08,1621.53c61.6,101.58-148,778-228,829.91-21.61,14-101.57-5.4-112.38-27-45.38-97.26,131.83-534.9,127.51-621.35,0,0-129.67-45.39-125.35-137.24l338.23-44.31Z"/></clipPath></defs><rect id="_09-2" data-name="09" class="cls-2" width="4680" height="3120"/><path class="cls-3" d="M559,2235.16H2013.78c932.79,0,1973.48,0,1993.56,0" transform="translate(0 0)"/><path class="cls-4" d="M559,2235.16H2013.78c932.79,0,1973.48,0,1993.56,0" transform="translate(0 0)"/><line class="cls-4" x1="525.12" y1="2235.12" x2="459.35" y2="2235.12"/><line class="cls-4" x1="4127.42" y1="2235.12" x2="4061.66" y2="2235.12"/><line class="cls-4" x1="4220.65" y1="2235.12" x2="4185.96" y2="2235.12"/><g class="cls-5"><path class="cls-6" d="M3746.84,2012.75s97.26,38.13,120.14-35.58,14-59.73,75-123.28,38.12-169.73-7.63-220.21,1.42-122-71.43-182.66c-44.22-36.85-143.35-15.35-176,71.17-27.86,73.84-50,43.21-103.35,96.59s-29.23,147.42,14,200.8S3588.57,2042,3746.84,2012.75Z" transform="translate(0 0)"/><path class="cls-7" d="M3904.25,1768.74s-76.38,21.18-97.5-60.15c0,0-66,16-107.53-49.22,0,0-29.15,70.39-116.67,45,0,0,30.46,119.7,224.2,119.7C3867,1824.05,3904.25,1768.74,3904.25,1768.74Z" transform="translate(0 0)"/><path class="cls-7" d="M3582.55,1798.15a191.8,191.8,0,0,0,15,21.43c43.21,53.38-9,222.4,149.29,193.17,0,0,97.26,38.13,120.14-35.58s14-59.73,75-123.28c32.95-34.32,41.43-81.09,35-124.81-7.58,24.78-18.72,50.92-35,72.35-45.75,60.09-114.24.53-186.11,89.41C3688.33,1974.32,3665.17,1793.73,3582.55,1798.15Z" transform="translate(0 0)"/><path class="cls-3" d="M3806.75,2235.16c-44.75-159.59-53.2-308.92-51.24-414.2.3-16,.84-31,1.53-44.8q.83-16.58,1.9-30.92c1-14.65,2.23-27.47,3.37-38.21a101,101,0,0,1-18.51-6.75c-9.52,35.2-17.45,74-24,114.16q-1.12,6.82-2.19,13.7c-3.19,20.47-6.05,41.21-8.62,61.93-21.37,173.09-22,345.09-22,345.09Z" transform="translate(0 0)"/><path class="cls-3" d="M3717.57,1828.14c-7.23-6.41-17.13-13.63-30.65-21.4a111.94,111.94,0,0,1-10.83-7.08h0c-32.57-23.94-51.7-63.21-61.59-89.86h0a118.09,118.09,0,0,1-12.76-1.21,231.69,231.69,0,0,0,19.57,54.91,228.94,228.94,0,0,0,48.35,64.72c18.15,16.73,30.93,41,39.34,61.85,0,0,0,0,0,0a277.4,277.4,0,0,1,13.3,42Z" transform="translate(0 0)"/><path class="cls-3" d="M3752.66,1777.78c1.41-.5,2.87-1,4.38-1.62a173.37,173.37,0,0,0,48.81-28.41c4.52-3.75,8.61-7.54,12.3-11.28a91.06,91.06,0,0,1-6.19-12.26c-1,.66-2,1.31-3.08,2a147.71,147.71,0,0,1-49.94,19.08c-1.86.36-3.66.65-5.38.92Q3753.11,1762,3752.66,1777.78Z" transform="translate(0 0)"/><path class="cls-8" d="M3757.33,1445.62c28.07-9.3,62.91,8.91,46.57,73.2-23.14,91,72,137,154.58,150.91a159.73,159.73,0,0,0-24.14-36.06c-45.77-50.47,1.41-121.94-71.44-182.65C3837.93,1430.21,3795.45,1428,3757.33,1445.62Z" transform="translate(0 0)"/><path class="cls-9" d="M3694.59,2043.27c8.8-12.21,31.5-47.11,29.63-80.13a255.24,255.24,0,0,0-15.27-73.06C3702.43,1942.86,3697.84,1995.53,3694.59,2043.27Z" transform="translate(0 0)"/><path class="cls-9" d="M3755.61,1881.19c-.46-21.34-.45-41.49-.1-60.23.3-16,.84-31,1.53-44.8,0,0-7.57.6-16.22,1.62C3732.92,1778.7,3741.57,1826.57,3755.61,1881.19Z" transform="translate(0 0)"/></g><g class="cls-10"><path class="cls-6" d="M918.22,1969.68s116.1,45.51,143.4-42.47,16.69-71.3,89.5-147.15,45.51-202.6-9.1-262.86,1.7-145.56-85.26-218c-52.78-44-171.11-18.32-210.07,84.95-33.24,88.14-59.64,51.58-123.36,115.3s-34.89,176,16.69,239.68S729.3,2004.57,918.22,1969.68Z" transform="translate(0 0)"/><path class="cls-7" d="M1106.12,1678.42s-91.18,25.28-116.38-71.8c0,0-78.81,19-128.36-58.75,0,0-34.79,84-139.26,53.68,0,0,36.35,142.89,267.62,142.89C1061.62,1744.44,1106.12,1678.42,1106.12,1678.42Z" transform="translate(0 0)"/><path class="cls-7" d="M722.12,1713.52A228.56,228.56,0,0,0,740,1739.1c51.58,63.71-10.73,265.47,178.2,230.58,0,0,116.1,45.51,143.4-42.47s16.69-71.3,89.5-147.15c39.34-41,49.46-96.8,41.83-149-9,29.58-22.35,60.78-41.83,86.36-54.61,71.72-136.36.63-222.14,106.72C848.38,1923.81,820.74,1708.24,722.12,1713.52Z" transform="translate(0 0)"/><path class="cls-3" d="M989.73,2235.16c-53.41-190.49-63.5-368.74-61.16-494.41.36-19.08,1-37,1.83-53.47.65-13.2,1.43-25.52,2.26-36.91,1.26-17.49,2.67-32.8,4-45.61a120.48,120.48,0,0,1-22.08-8.06c-11.37,42-20.83,88.35-28.71,136.27q-1.33,8.15-2.61,16.35c-3.8,24.43-7.22,49.19-10.28,73.93-25.52,206.6-26.31,411.91-26.31,411.91Z" transform="translate(0 0)"/><path class="cls-3" d="M883.28,1749.32c-8.63-7.66-20.44-16.27-36.59-25.54a134.67,134.67,0,0,1-12.92-8.45h0l0,0c-38.88-28.58-61.71-75.45-73.51-107.26h0a139.88,139.88,0,0,1-15.23-1.44,276.17,276.17,0,0,0,23.36,65.55c15,29.79,35,56.28,57.7,77.24,21.67,20,36.93,48.92,47,73.83,0,0,0,0,0,0a331.06,331.06,0,0,1,15.87,50.12Z" transform="translate(0 0)"/><path class="cls-3" d="M925.17,1689.21c1.68-.6,3.43-1.23,5.23-1.93a207.4,207.4,0,0,0,58.26-33.92c5.4-4.48,10.28-9,14.68-13.46a109.73,109.73,0,0,1-7.39-14.63c-1.2.78-2.43,1.56-3.67,2.32a176.4,176.4,0,0,1-59.62,22.78c-2.21.43-4.37.77-6.41,1.09Q925.7,1670.33,925.17,1689.21Z" transform="translate(0 0)"/><path class="cls-8" d="M930.74,1292.72c33.51-11.1,75.1,10.64,55.6,87.38-27.63,108.68,85.92,163.47,184.5,180.14a190.16,190.16,0,0,0-28.81-43c-54.63-60.24,1.69-145.55-85.27-218C1027,1274.33,976.25,1271.71,930.74,1292.72Z" transform="translate(0 0)"/><path class="cls-9" d="M855.85,2006.11c10.51-14.57,37.6-56.23,35.37-95.64-2.74-48.79-18.23-87.21-18.23-87.21C865.21,1886.25,859.73,1949.13,855.85,2006.11Z" transform="translate(0 0)"/><path class="cls-9" d="M928.7,1812.64c-.56-25.47-.54-49.53-.13-71.89.36-19.08,1-37,1.83-53.48,0,0-9,.72-19.36,1.94C901.61,1690.31,911.94,1747.45,928.7,1812.64Z" transform="translate(0 0)"/></g><path class="cls-11" d="M2871.51,1349.76l37.79-20.06c-199.64-47.16-401.92-94.62-607-90-113.59,2.53-226.15,21-338.26,39.49l-432.62,71.23c-26,138,19.82,295.23,107,405.34,92.8,117.25,229.41,186.73,338.54,286.72,37,33.9,74.38,68.08,117.9,93.07s94.28,40.35,144,33.35c188.55-26.58,289.36-239.85,402.35-367,60.09-67.62,125.51-133.24,173.75-210.25,22.32-35.61,41.73-73.5,52.17-114.43C2870.16,1465,2874.36,1348.25,2871.51,1349.76Z" transform="translate(0 0)"/><path class="cls-6" d="M1957.29,1847.88s63.61,24.93,78.57-23.28,9.15-39.06,49-80.63,24.93-111-5-144,.93-79.76-46.72-119.46c-28.92-24.11-93.76-10-115.1,46.54-18.22,48.3-32.69,28.27-67.6,63.18s-19.12,96.42,9.15,131.33S1853.77,1867,1957.29,1847.88Z" transform="translate(0 0)"/><path class="cls-7" d="M2060.25,1688.28s-50,13.86-63.77-39.34c0,0-43.18,10.43-70.34-32.19,0,0-19.06,46-76.3,29.41,0,0,19.92,78.3,146.64,78.3C2035.86,1724.46,2060.25,1688.28,2060.25,1688.28Z" transform="translate(0 0)"/><path class="cls-7" d="M1849.84,1707.52a124.48,124.48,0,0,0,9.81,14c28.26,34.91-5.88,145.46,97.64,126.35,0,0,63.61,24.93,78.57-23.28s9.15-39.06,49-80.63c21.55-22.45,27.09-53,22.91-81.63-5,16.21-12.24,33.31-22.91,47.32-29.93,39.3-74.72.35-121.73,58.48C1919,1822.74,1903.87,1704.62,1849.84,1707.52Z" transform="translate(0 0)"/><path class="cls-3" d="M1996.47,1993.34c-29.26-104.38-34.79-202-33.51-270.9.2-10.46.55-20.25,1-29.3.36-7.24.79-14,1.24-20.23.69-9.58,1.47-18,2.21-25a66.17,66.17,0,0,1-12.11-4.42c-6.22,23-11.41,48.41-15.72,74.67-.49,3-1,6-1.43,9-2.09,13.39-4,26.95-5.64,40.51-14,113.2-14.41,225.7-14.41,225.7Z" transform="translate(0 0)"/><path class="cls-3" d="M1938.15,1727.13a120.81,120.81,0,0,0-20.05-14,74.91,74.91,0,0,1-7.08-4.63h0c-21.3-15.66-33.81-41.35-40.28-58.78h0a76.26,76.26,0,0,1-8.34-.79,151.16,151.16,0,0,0,12.8,35.92,149.31,149.31,0,0,0,31.62,42.32c11.87,10.95,20.23,26.81,25.73,40.46,0,0,0,0,0,0a181.59,181.59,0,0,1,8.69,27.46Z" transform="translate(0 0)"/><path class="cls-3" d="M1961.1,1694.19c.92-.32,1.87-.67,2.86-1a113.52,113.52,0,0,0,31.92-18.59,109.06,109.06,0,0,0,8-7.37,60.62,60.62,0,0,1-4-8c-.66.43-1.33.85-2,1.27a96.72,96.72,0,0,1-32.67,12.48c-1.21.24-2.39.43-3.51.6Q1961.39,1683.85,1961.1,1694.19Z" transform="translate(0 0)"/><path class="cls-8" d="M1964.15,1476.94c18.36-6.08,41.15,5.83,30.46,47.88-15.13,59.55,47.08,89.57,101.1,98.7a104.15,104.15,0,0,0-15.79-23.58c-29.93-33,.93-79.76-46.72-119.46C2016.87,1466.86,1989.08,1465.43,1964.15,1476.94Z" transform="translate(0 0)"/><path class="cls-9" d="M1923.12,1867.83c5.75-8,20.6-30.8,19.38-52.4a167.19,167.19,0,0,0-10-47.79C1928.24,1802.16,1925.24,1836.61,1923.12,1867.83Z" transform="translate(0 0)"/><path class="cls-9" d="M1963,1761.83c-.31-14-.3-27.14-.07-39.4.2-10.45.55-20.24,1-29.3,0,0-5,.4-10.61,1.07C1948.19,1694.8,1953.85,1726.11,1963,1761.83Z" transform="translate(0 0)"/><path class="cls-1" d="M4040,460V2233.27H3815.5a36.18,36.18,0,0,0-3.36-2.75c-111.45-80.08-242.56-184.9-272.5-323.9-33.17-154-84.81-303.53-117.18-458.52-48-229.91-82.95-464.3-166.5-685-5.47-14.45-11.9-29.78-24.9-38.11-12.4-7.95-28.14-7.85-42.85-7.27q-59.68,2.32-119.09,9.24-39,4.54-77.74,11c-40.31,72.57-84.17,143.21-124.24,215.84-31.47,57-39.39,114.94-59.49,177.05-11.76,36.36-21.23,62.84-37.12,94.14q-10,19.77-20.11,39.62c-96.4,190-194.73,383.81-305.67,545.72-73.13,106.74-191.26,239.88-285.71,271.78-132-90.44-261.08-210.52-366.12-382.81-25.73-42.25-121.35-159.69-123-215.36-24.93-19.84-63.23-41.86-81.08-73.69-21.84-38.92-18.36-77.62-44.92-104.25-30.76-30.85-75.07-31.15-103.49-64-18.35,20.74-55.47,51-75.22,67.2-4.2,45.46-12.56,82-24,113.24-29,79.06-78.08,123.78-130.27,191.66a1996.16,1996.16,0,0,1-162.8,186.57c-55.79,56.42-73.49,103.34-114.15,169.85q-12.19,19.93-24.42,39.9l-182.06,222.8H640V460Z" transform="translate(0 0)"/><path class="cls-7" d="M727.52,2233.27h423.62c40.71-27.73,129.77-68.93,313.44-88.6A166.36,166.36,0,0,1,1453,2106.3c-.82-4.65-1.43-9.51,0-14,3-9.87,14.9-14.74,25.13-13.36s19.15,7.41,27.65,13.26c-5.61-18.82-9.13-38.79-5.43-58.08,3.07-16,11.88-31.46,25.16-40.48a1.64,1.64,0,0,0,.22-.14c.83-.55,1.65-1.07,2.51-1.57l.36-.21c.83-.48,1.69-.94,2.57-1.37l.32-.16c.91-.43,1.83-.85,2.76-1.23h0a41.14,41.14,0,0,1,16.25-2.92c14.22.24,28.31,7.34,34.35,20.1a60.76,60.76,0,0,1-3.67-22.45,71.47,71.47,0,0,1,27.84-54.58c1.53-1.16,3.12-2.24,4.75-3.25,26.2-16.2,62.22-13.24,86.79,5.34a79.92,79.92,0,0,1,6.59,5.58c20.2,19.06,30.28,48.27,27.29,76,11.59-18.17,27.44-37.77,46.57-44.27a39.84,39.84,0,0,1,20.18-1.59c19.59,3.55,33.59,22.93,35.78,42.73s-5.3,39.51-15.63,56.55c.52-.33,1-.62,1.55-.89q.24-.14.48-.24c.37-.19.74-.37,1.11-.52l.54-.22c.39-.16.79-.3,1.17-.43.15,0,.29-.1.44-.15.53-.16,1.07-.3,1.6-.42l.4-.07c.4-.08.81-.16,1.22-.21l.64-.07c.33,0,.66-.06,1-.09l.69,0h1l1,0,1.18.09,1,.13.6.1c.35.05.71.12,1.06.2l.4.09c13.48,3.1,25.9,17.1,27.06,31.93.84,10.61-1.94,20.75-6.44,30.44,117.35-4.19,229.52-8.16,331.27-11.84,113.37-4.12,213.83-7.88,294.12-11.23,39.58-1.64,74.25-3.19,103.18-4.62q11.29-.54,22.66-1c-5-26.79-8.84-51-10.79-64.82-3.42-24.43-3.18-52.12,13.57-70.22s54.58-14.51,58.85,9.77q9.39-24.6,18.77-49.22c6.29-16.48,12.77-33.28,24.06-46.83s28.47-23.5,46-21.47,33.33,19.06,29.91,36.36c14.66-34.72,40.7-66.28,76-79.53l.41-.15c24.4-9,53.26-7.37,75.78,4.77a71.88,71.88,0,0,1,25.79,23,75.34,75.34,0,0,1,5.43,9.49c8.64,17.94,10.35,38.72,10.35,59.32,0,5.61-.13,11.22-.26,16.74,18.6-8.89,37.65-17.9,58.13-20.36s43.05,2.77,56.51,18.4c24,27.84,8.66,71.25-12.42,101.35,19.49-11.08,46.08-6.1,61.53,9.76a45.51,45.51,0,0,1,3.25,3.7,44.53,44.53,0,0,1,4.08,6.2,46.83,46.83,0,0,1,5.52,21.29c0,.83,0,1.64,0,2.47-.43,18.12-10.25,36.29-26.46,44.72,14.72-4.58,31-2.15,44.47,5.22,11,6.05,20.23,15.42,25.18,27a1.31,1.31,0,0,1,.05.15c.42,1,.8,2,1.17,3,.12.35.23.69.34,1,.25.73.48,1.46.7,2.2.12.38.21.74.32,1.12.2.74.38,1.49.56,2.25.07.33.15.67.22,1,.19.87.35,1.74.49,2.62,0,.2.07.4.11.61l0,.21c1.87.65,3.72,1.31,5.53,2a0,0,0,0,1,0,0c1.74.63,3.44,1.25,5.13,1.89l.33.13c1.6.59,3.16,1.19,4.72,1.79l.5.2c1.5.59,3,1.17,4.45,1.77l.6.24c1.43.57,2.85,1.16,4.26,1.74l.63.27c1.39.59,2.78,1.17,4.14,1.77l.6.26c1.38.6,2.74,1.2,4.08,1.82l.53.23c1.4.63,2.76,1.26,4.13,1.9l.35.17c1.45.68,2.89,1.37,4.3,2.07l0,0q10.86,5.32,20.14,11a3.54,3.54,0,0,1,.41.26c1.07.64,2.11,1.29,3.14,1.95l.73.47c.91.6,1.8,1.18,2.68,1.78l.89.59c.81.56,1.62,1.11,2.41,1.67l1,.69,2.2,1.6,1,.75c.21.16.41.32.61.46.48.38,1,.74,1.42,1.11l1,.79c.64.52,1.28,1,1.89,1.56.34.27.66.54,1,.82.61.52,1.21,1,1.8,1.55l.94.85c.58.51,1.14,1,1.69,1.56l.9.84c.56.53,1.09,1.07,1.62,1.6l.83.84c.53.55,1,1.1,1.55,1.66l.74.79c.54.6,1.05,1.19,1.56,1.79.2.23.41.46.6.69.58.7,1.15,1.41,1.7,2.11.09.13.21.26.3.38,1.3,1.68,2.49,3.38,3.59,5.1.15.24.29.48.43.72.39.61.77,1.22,1.11,1.83.19.31.35.64.52,1,.31.54.6,1.09.88,1.63.18.36.35.71.52,1.07.24.51.49,1,.72,1.53s.33.75.49,1.13.42,1,.61,1.5.26.71.4,1.07H3815.5l-.61-.55c-.91-.8-1.83-1.53-2.75-2.2-111.45-80.08-242.56-184.9-272.5-323.9-33.17-154-84.81-303.53-117.18-458.52-48-229.91-82.95-464.3-166.5-685-5.47-14.45-11.9-29.78-24.9-38.11-12.4-7.95-28.14-7.85-42.85-7.27q-59.68,2.32-119.09,9.24-39,4.54-77.74,11c-40.31,72.57-84.17,143.21-124.24,215.84-31.47,57-39.39,114.94-59.49,177.05-11.76,36.36-21.23,62.84-37.12,94.14q-10,19.77-20.11,39.62c-96.4,190-194.73,383.81-305.67,545.72-73.13,106.74-191.26,239.88-285.71,271.78-132-90.44-261.08-210.52-366.12-382.81-25.73-42.25-121.35-159.69-123-215.36-24.93-19.84-63.23-41.86-81.08-73.69-21.84-38.92-18.36-77.62-44.92-104.25-30.76-30.85-75.07-31.15-103.49-64-18.35,20.74-55.47,51-75.22,67.2-4.2,45.46-12.56,82-24,113.24-29,79.06-78.08,123.78-130.27,191.66a1996.16,1996.16,0,0,1-162.8,186.57c-55.79,56.42-73.49,103.34-114.15,169.85q-12.19,19.93-24.42,39.9Z" transform="translate(0 0)"/><path class="cls-12" d="M1341.21,1422.49q134.57,123.09,269.15,246.16c134.72,123.22,270.16,247,422.74,347.24,51.5,33.84,105,65,157,98.13,113.37-4.12,213.83-7.88,294.12-11.23,117.56-269.84,228.5-544.3,275.74-834.17l-9.58-3.93c-96.4,190-194.73,383.81-305.67,545.72-73.13,106.74-191.26,239.88-285.71,271.78-132-90.44-261.08-210.52-366.12-382.81-25.73-42.25-121.35-159.69-123-215.36-24.93-19.84-63.23-41.86-81.08-73.69-21.84-38.92-18.36-77.62-44.92-104.25-30.76-30.85-75.07-31.15-103.49-64-18.35,20.74-55.47,51-75.22,67.2C1361,1354.71,1352.68,1391.28,1341.21,1422.49Z" transform="translate(0 0)"/><path class="cls-13" d="M1837.86,2063.4l-1.07-.21C1837.15,2063.25,1837.5,2063.32,1837.86,2063.4Z" transform="translate(0 0)"/><path class="cls-13" d="M1825,2064.32l-.54.23Z" transform="translate(0 0)"/><path class="cls-13" d="M1830.41,2063l-.63.07Z" transform="translate(0 0)"/><path class="cls-13" d="M1826.57,2063.75l-.45.15Z" transform="translate(0 0)"/><path class="cls-13" d="M1828.56,2063.26l-.4.07Z" transform="translate(0 0)"/><path class="cls-13" d="M1834.05,2062.88l-1,0Z" transform="translate(0 0)"/><path class="cls-13" d="M1832.11,2062.85l-.69,0Z" transform="translate(0 0)"/><path class="cls-13" d="M1550.44,1986c14.21.25,28.3,7.35,34.34,20.1C1578.74,1993.35,1564.65,1986.25,1550.44,1986Z" transform="translate(0 0)"/><path class="cls-13" d="M1836.2,2063.1l-1-.13Z" transform="translate(0 0)"/><path class="cls-13" d="M1836.9,2009.65c2.2,19.79-5.3,39.51-15.62,56.54C1831.6,2049.16,1839.1,2029.44,1836.9,2009.65Z" transform="translate(0 0)"/><path class="cls-12" d="M1464.59,2144.67a166.56,166.56,0,0,1-11.65-38.37c-.81-4.65-1.42-9.51,0-14,3-9.87,14.9-14.74,25.13-13.36s19.15,7.41,27.65,13.26c-5.61-18.82-9.13-38.8-5.43-58.08,3.07-16,11.87-31.46,25.17-40.47-11.61,7.88-19.76,20.71-23.69,34.5.52-.78,1-1.59,1.54-2.33a49.78,49.78,0,0,1,43.4-19c23.24,2.18,41.45,20.14,57.54,37-1.85-22.66-3.62-46.08,3.74-67.6s26.39-40.76,49.13-40.92c24.26-.17,44,21,52.48,43.72s9,47.56,14,71.29A150.8,150.8,0,0,1,1763,2015.1c6.9-4.26,14.54-8,22.65-7.9,14.92.28,26.73,14.38,29.29,29.08s-2,29.65-7.23,43.62a61.24,61.24,0,0,1,50.5.76c1.06.51,2.06,1.12,3.09,1.69-4.93-9.28-13.75-16.69-23.08-18.86,13.48,3.11,25.89,17.11,27.06,31.93.84,10.61-1.93,20.76-6.44,30.43-83.67,3-170,6.08-257,9.27C1551,2137,1505.48,2140.3,1464.59,2144.67Z" transform="translate(0 0)"/><path class="cls-13" d="M1531.07,1990.33c-.87.43-1.72.89-2.57,1.38C1529.35,1991.22,1530.2,1990.76,1531.07,1990.33Z" transform="translate(0 0)"/><path class="cls-13" d="M1534.16,1988.94c-.94.38-1.85.8-2.76,1.23C1532.31,1989.74,1533.22,1989.32,1534.16,1988.94Z" transform="translate(0 0)"/><path class="cls-13" d="M1581.1,1983.65a60.91,60.91,0,0,0,3.68,22.45A60.91,60.91,0,0,1,1581.1,1983.65Z" transform="translate(0 0)"/><path class="cls-13" d="M1823.3,2065.06l-.48.24Z" transform="translate(0 0)"/><path class="cls-13" d="M1707.08,1936.75c20.2,19.06,30.28,48.28,27.29,76h0C1737.36,1985,1727.28,1955.81,1707.08,1936.75Z" transform="translate(0 0)"/><path class="cls-13" d="M1528.15,1991.91c-.85.5-1.69,1-2.5,1.57C1526.46,1992.93,1527.3,1992.41,1528.15,1991.91Z" transform="translate(0 0)"/><path class="cls-3" d="M1861.33,2082.35c-1-.57-2-1.18-3.09-1.69a61.24,61.24,0,0,0-50.5-.76c5.23-14,9.78-28.92,7.23-43.62s-14.37-28.8-29.29-29.08c-8.11-.15-15.75,3.64-22.65,7.9a150.8,150.8,0,0,0-39.42,35.22c-5-23.73-5.54-48.56-14-71.29s-28.22-43.89-52.48-43.72c-22.74.16-41.77,19.41-49.13,40.92s-5.59,44.94-3.74,67.6c-16.09-16.9-34.3-34.86-57.54-37a49.78,49.78,0,0,0-43.4,19c-.57.74-1,1.55-1.54,2.33,3.93-13.79,12.08-26.62,23.69-34.5l.22-.15c.81-.55,1.65-1.07,2.5-1.57l.35-.2c.85-.49,1.7-1,2.57-1.38l.33-.16c.91-.43,1.82-.85,2.76-1.23h0a41.7,41.7,0,0,1,16.26-2.93c14.21.25,28.3,7.35,34.34,20.1a60.91,60.91,0,0,1-3.68-22.45,71.51,71.51,0,0,1,27.84-54.57c1.54-1.15,3.13-2.24,4.76-3.25,26.2-16.2,62.22-13.24,86.79,5.34a78,78,0,0,1,6.59,5.58c20.2,19.06,30.28,48.28,27.28,76h0c11.59-18.16,27.44-37.77,46.57-44.27a39.62,39.62,0,0,1,20.18-1.59c19.6,3.56,33.59,22.93,35.78,42.73s-5.3,39.51-15.62,56.54c.5-.32,1-.61,1.54-.89l.48-.24q.56-.27,1.11-.51l.54-.23q.58-.22,1.17-.42l.45-.15c.52-.16,1.06-.3,1.59-.42l.4-.07c.41-.08.81-.15,1.22-.21l.63-.07,1-.09.69,0h1l1,0c.39,0,.79,0,1.18.09l1,.13.59.09,1.07.21.39.09C1847.58,2065.66,1856.4,2073.07,1861.33,2082.35Z" transform="translate(0 0)"/><path class="cls-13" d="M3204.94,2147.31c-.36-1-.75-2-1.17-3C3204.19,2145.3,3204.58,2146.31,3204.94,2147.31Z" transform="translate(0 0)"/><path class="cls-13" d="M3150.93,2037.22a47.51,47.51,0,0,0-3.25-3.7A47.51,47.51,0,0,1,3150.93,2037.22Z" transform="translate(0 0)"/><path class="cls-13" d="M3206,2150.56c-.22-.74-.46-1.48-.71-2.21C3205.53,2149.08,3205.77,2149.82,3206,2150.56Z" transform="translate(0 0)"/><path class="cls-13" d="M2984.19,1907.62c0-20.59-1.71-41.37-10.35-59.31C2982.48,1866.25,2984.19,1887,2984.19,1907.62Z" transform="translate(0 0)"/><path class="cls-13" d="M3160.53,2067.18c0-.82,0-1.65,0-2.47C3160.55,2065.53,3160.55,2066.36,3160.53,2067.18Z" transform="translate(0 0)"/><path class="cls-13" d="M2983.92,1924.37c18.62-8.89,37.66-17.91,58.14-20.36-20.48,2.45-39.52,11.47-58.14,20.36Z" transform="translate(0 0)"/><path class="cls-13" d="M3134.06,2111.9h0c14.73-4.57,31-2.15,44.48,5.23C3165.05,2109.75,3148.79,2107.33,3134.06,2111.9Z" transform="translate(0 0)"/><path class="cls-13" d="M3206.86,2153.91c-.18-.75-.36-1.49-.56-2.24C3206.5,2152.42,3206.68,2153.16,3206.86,2153.91Z" transform="translate(0 0)"/><path class="cls-13" d="M3207.67,2158.15c0,.07,0,.14,0,.21h0Z" transform="translate(0 0)"/><path class="cls-13" d="M3086.15,2023.76c19.5-11.08,46.08-6.1,61.53,9.76C3132.23,2017.66,3105.65,2012.68,3086.15,2023.76Z" transform="translate(0 0)"/><path class="cls-13" d="M3207.57,2157.54c-.14-.88-.31-1.75-.49-2.62C3207.26,2155.79,3207.43,2156.66,3207.57,2157.54Z" transform="translate(0 0)"/><path class="cls-13" d="M3156.69,2136.18a55.32,55.32,0,0,1,15.47,11c-18.67-5.32-38.74-10.26-60-14.79C3127.39,2130.4,3143,2129.81,3156.69,2136.18Z" transform="translate(0 0)"/><path class="cls-12" d="M2859,1816.28c20.5,0,41.62,5.28,57.35,18.43,17.58,14.7,26.59,37.68,29,60.47s-1,45.76-4.37,68.43a155.51,155.51,0,0,1,89.74-36.41c8.69-.57,17.82-.32,25.55,3.72,18.36,9.59,20.6,35.07,16.68,55.42a172.36,172.36,0,0,1-27.3,65.08c15.4-5.16,31.36-10.4,47.53-8.9s32.73,11.62,36.43,27.43c5.17,22.07-14.93,40.49-26.06,60.6-137.48-28.22-321.54-40.18-493.43-33.38-5-26.79-8.85-51-10.79-64.82-3.43-24.43-3.18-52.12,13.58-70.22s54.56-14.52,58.84,9.78l18.78-49.23c6.28-16.48,12.76-33.29,24-46.84s28.47-23.48,46-21.46,33.33,19.06,29.91,36.37c14.67-34.73,40.7-66.29,76-79.54a108.78,108.78,0,0,0-11.53,5.2C2856.25,1816.36,2857.61,1816.28,2859,1816.28Z" transform="translate(0 0)"/><path class="cls-3" d="M3172.16,2147.15a55.32,55.32,0,0,0-15.47-11c-13.73-6.37-29.3-5.78-44.52-3.82q-4.29-.92-8.64-1.81c11.13-20.11,31.23-38.53,26.06-60.6-3.7-15.81-20.26-25.93-36.43-27.43s-32.13,3.74-47.53,8.9a172.36,172.36,0,0,0,27.3-65.08c3.92-20.35,1.68-45.83-16.68-55.42-7.73-4-16.86-4.29-25.55-3.72a155.51,155.51,0,0,0-89.74,36.41c3.4-22.67,6.82-45.64,4.37-68.43s-11.45-45.77-29-60.47c-15.73-13.15-36.85-18.45-57.35-18.43-1.34,0-2.7.08-4,.13a108.78,108.78,0,0,1,11.53-5.2l.41-.16c24.4-9,53.26-7.35,75.78,4.78a71.8,71.8,0,0,1,25.79,23,76.05,76.05,0,0,1,5.43,9.49c8.64,17.94,10.35,38.72,10.35,59.31,0,5.62-.12,11.22-.27,16.75h0c18.62-8.89,37.66-17.91,58.14-20.36s43,2.77,56.51,18.4c24,27.83,8.66,71.25-12.42,101.35,19.5-11.08,46.08-6.1,61.53,9.76a47.51,47.51,0,0,1,3.25,3.7,44.53,44.53,0,0,1,4.08,6.2,46.86,46.86,0,0,1,5.52,21.29c0,.82,0,1.65,0,2.47-.43,18.12-10.25,36.29-26.47,44.72h0c14.73-4.57,31-2.15,44.48,5.23,11,6,20.23,15.41,25.17,27l.06.15c.42,1,.81,2,1.17,3,.12.35.23.69.34,1,.25.73.49,1.47.71,2.21.1.37.2.74.31,1.11.2.75.38,1.49.56,2.24.07.34.15.67.22,1,.18.87.35,1.74.49,2.62,0,.2.07.4.1.61l0,.21Q3190.95,2152.5,3172.16,2147.15Z" transform="translate(0 0)"/><path class="cls-14" d="M3218.38,2162.23c-1.69-.64-3.39-1.27-5.12-1.89C3215,2161,3216.69,2161.59,3218.38,2162.23Z" transform="translate(0 0)"/><path class="cls-14" d="M3252,2176.59q-2.11-1.05-4.31-2.07Q3249.88,2175.54,3252,2176.59Z" transform="translate(0 0)"/><path class="cls-14" d="M3272.18,2187.58q-9.25-5.65-20.14-11Q3262.9,2181.93,3272.18,2187.58Z" transform="translate(0 0)"/><path class="cls-14" d="M3275.73,2189.79c-1-.65-2.08-1.31-3.14-2C3273.65,2188.48,3274.7,2189.14,3275.73,2189.79Z" transform="translate(0 0)"/><path class="cls-14" d="M3233.23,2168.11c-1.4-.59-2.82-1.17-4.25-1.75C3230.41,2166.94,3231.83,2167.52,3233.23,2168.11Z" transform="translate(0 0)"/><path class="cls-14" d="M3223.43,2164.16q-2.34-.91-4.72-1.81Q3221.1,2163.25,3223.43,2164.16Z" transform="translate(0 0)"/><path class="cls-14" d="M3242.7,2172.21l-4.1-1.81Z" transform="translate(0 0)"/><path class="cls-14" d="M3228.38,2166.11l-4.45-1.76Z" transform="translate(0 0)"/><path class="cls-14" d="M3238,2170.14l-4.15-1.77Z" transform="translate(0 0)"/><path class="cls-14" d="M3247.35,2174.35l-4.13-1.9Z" transform="translate(0 0)"/><path class="cls-14" d="M3306.44,2216.36c-.55-.71-1.12-1.41-1.7-2.11C3305.32,2215,3305.89,2215.65,3306.44,2216.36Z" transform="translate(0 0)"/><path class="cls-14" d="M3311.88,2224.39q-.54-.91-1.11-1.83Q3311.34,2223.48,3311.88,2224.39Z" transform="translate(0 0)"/><path class="cls-14" d="M3279.15,2192l-2.69-1.76Z" transform="translate(0 0)"/><path class="cls-14" d="M3304.14,2213.55c-.51-.59-1-1.19-1.55-1.78C3303.12,2212.36,3303.63,2213,3304.14,2213.55Z" transform="translate(0 0)"/><path class="cls-14" d="M3315.61,2232.2c-.19-.5-.4-1-.61-1.5C3315.21,2231.2,3315.42,2231.7,3315.61,2232.2Z" transform="translate(0 0)"/><path class="cls-14" d="M3313.27,2227c-.28-.54-.58-1.09-.87-1.63C3312.69,2225.88,3313,2226.43,3313.27,2227Z" transform="translate(0 0)"/><path class="cls-14" d="M3301.85,2211c-.51-.56-1-1.11-1.56-1.66C3300.82,2209.87,3301.34,2210.42,3301.85,2211Z" transform="translate(0 0)"/><path class="cls-14" d="M3314.52,2229.58c-.23-.52-.48-1-.73-1.55C3314,2228.55,3314.29,2229.06,3314.52,2229.58Z" transform="translate(0 0)"/><path class="cls-14" d="M3310.33,2221.84c-1.1-1.72-2.29-3.42-3.59-5.1C3308,2218.42,3309.23,2220.12,3310.33,2221.84Z" transform="translate(0 0)"/><path class="cls-14" d="M3288.63,2198.91c-.66-.52-1.34-1-2-1.57C3287.29,2197.86,3288,2198.39,3288.63,2198.91Z" transform="translate(0 0)"/><path class="cls-14" d="M3299.46,2208.48l-1.62-1.59Z" transform="translate(0 0)"/><path class="cls-14" d="M3282.44,2194.3c-.79-.56-1.59-1.11-2.41-1.66C3280.85,2193.19,3281.65,2193.74,3282.44,2194.3Z" transform="translate(0 0)"/><path class="cls-14" d="M3285.6,2196.59c-.72-.53-1.45-1.07-2.2-1.6Z" transform="translate(0 0)"/><path class="cls-14" d="M3297,2206c-.56-.52-1.12-1.05-1.7-1.57C3295.83,2205,3296.39,2205.52,3297,2206Z" transform="translate(0 0)"/><path class="cls-14" d="M3294.31,2203.63l-1.79-1.55Z" transform="translate(0 0)"/><path class="cls-14" d="M3291.54,2201.26c-.63-.52-1.26-1-1.9-1.55C3290.28,2200.22,3290.91,2200.74,3291.54,2201.26Z" transform="translate(0 0)"/><path class="cls-11" d="M1601.82,2135.12c87.06-3.19,173.38-6.28,257-9.27,312.55-11.14,588.28-20.73,728.57-27.67q11.28-.57,22.66-1c171.89-6.8,356,5.16,493.43,33.38q4.35.9,8.64,1.81c21.25,4.53,41.32,9.47,60,14.79q18.75,5.34,35.54,11.21h0c1.87.65,3.71,1.31,5.54,2-40.73-14.76-91.27-27.16-148.13-37,10.31,19.75-31.52,41.65-192.89,48.35-403.12,16.74-1409.46,48.7-1592.81,6.78-64.84,18.27-104.59,38.81-128.18,54.84h-.1c40.71-27.73,129.77-68.92,313.45-88.6C1505.48,2140.3,1551,2137,1601.82,2135.12Z" transform="translate(0 0)"/><path class="cls-7" d="M2872.23,2171.65c161.37-6.7,203.2-28.6,192.89-48.35,56.86,9.87,107.4,22.27,148.13,37h0c1.73.62,3.43,1.25,5.12,1.89l.33.12q2.39.9,4.72,1.81l.5.19,4.45,1.76.6.25c1.43.58,2.85,1.16,4.25,1.75l.63.26,4.15,1.77.59.26,4.1,1.81.52.24,4.13,1.9.34.17q2.19,1,4.31,2.07h0q10.88,5.33,20.14,11l.41.25c1.06.65,2.11,1.31,3.14,2l.73.48,2.69,1.76.88.61c.82.55,1.62,1.1,2.41,1.66l1,.69c.75.53,1.48,1.07,2.2,1.6l1,.75c.69.52,1.37,1,2,1.57l1,.8c.64.51,1.27,1,1.9,1.55l1,.82,1.79,1.55.94.84c.58.52,1.14,1.05,1.7,1.57.3.28.6.56.89.85l1.62,1.59.83.84c.53.55,1.05,1.1,1.56,1.66.24.26.5.52.74.79.53.59,1,1.19,1.55,1.78l.6.7c.58.7,1.15,1.4,1.7,2.11l.3.38c1.3,1.68,2.49,3.38,3.59,5.1l.44.72q.57.92,1.11,1.83c.18.32.34.64.52,1,.29.54.59,1.09.87,1.63.18.35.35.71.52,1.06.25.52.5,1,.73,1.55.17.37.32.75.48,1.12s.42,1,.61,1.5.27.71.4,1.07H1151.24c23.59-16,63.34-36.57,128.18-54.84C1462.77,2220.35,2469.11,2188.39,2872.23,2171.65Z" transform="translate(0 0)"/><g class="cls-15"><path class="cls-12" d="M3051.47,1654.57C3072.11,1735.69,3114,1809.45,3152,1884a2657.65,2657.65,0,0,1,135.19,313.78c.48.38,1,.74,1.42,1.11l1,.79c.64.52,1.28,1,1.89,1.56.34.27.66.54,1,.82.61.52,1.21,1,1.8,1.55l.94.85c.58.51,1.14,1,1.69,1.56l.9.84c.56.53,1.09,1.07,1.62,1.6l.83.84c.53.55,1,1.1,1.55,1.66l.74.79c.54.6,1.05,1.19,1.56,1.79.2.23.41.46.6.69.58.7,1.15,1.41,1.7,2.11.09.13.21.26.3.38,1.3,1.68,2.49,3.38,3.59,5.1.15.24.29.48.43.72.39.61.77,1.22,1.11,1.83.19.31.35.64.52,1,.31.54.6,1.09.88,1.63.18.36.35.71.52,1.07.24.51.49,1,.72,1.53s.33.75.49,1.13.42,1,.61,1.5.26.71.4,1.07H3815.5l-.61-.55c-.91-.8-1.83-1.53-2.75-2.2-111.45-80.08-242.56-184.9-272.5-323.9-33.17-154-84.81-303.53-117.18-458.52-48-229.91-82.95-464.3-166.5-685-5.47-14.45-11.9-29.78-24.9-38.11-12.4-7.95-28.14-7.85-42.85-7.27q-59.68,2.32-119.09,9.24c6.6,16.15,13.09,32.67,18.87,50.12,23.65,71.35,4.63,175.17-3.23,248.57-16.11,150.5-47.64,299.69-50.4,451C3033.26,1536.44,3036.74,1596.68,3051.47,1654.57Z" transform="translate(0 0)"/></g><path class="cls-6" d="M3511.92,1830.91s176.79,69.3,218.37-64.68,25.41-108.57,136.29-224.07,69.3-308.5-13.86-400.26,2.58-221.66-129.83-332c-80.38-67-260.55-27.9-319.88,129.36-50.62,134.21-90.82,78.54-187.84,175.56s-53.13,268,25.41,365S3224.25,1884,3511.92,1830.91Z" transform="translate(0 0)"/><path class="cls-7" d="M3798.05,1387.39s-138.84,38.5-177.22-109.34c0,0-120,29-195.45-89.45,0,0-53,127.94-212.06,81.74,0,0,55.35,217.59,407.51,217.59C3730.29,1487.93,3798.05,1387.39,3798.05,1387.39Z" transform="translate(0 0)"/><path class="cls-7" d="M3213.32,1440.84a348.3,348.3,0,0,0,27.26,39c78.54,97-16.34,404.25,271.35,351.12,0,0,176.78,69.3,218.36-64.68s25.41-108.57,136.29-224.07c59.9-62.39,75.31-147.4,63.69-226.86-13.77,45-34,92.56-63.69,131.5-83.16,109.22-207.64,1-338.27,162.51C3405.58,1761.05,3363.49,1432.8,3213.32,1440.84Z" transform="translate(0 0)"/><path class="cls-3" d="M3620.82,2235.16c-81.33-290.07-96.69-561.49-93.14-752.85.56-29.06,1.53-56.27,2.8-81.43,1-20.1,2.17-38.85,3.44-56.2,1.92-26.64,4.07-49.94,6.12-69.46a183.93,183.93,0,0,1-33.63-12.27c-17.3,64-31.72,134.53-43.71,207.51q-2,12.4-4,24.9c-5.8,37.19-11,74.89-15.66,112.56-38.85,314.6-40.06,627.24-40.06,627.24Z" transform="translate(0 0)"/><path class="cls-3" d="M3458.73,1495.36c-13.14-11.67-31.14-24.79-55.72-38.9a205.38,205.38,0,0,1-19.68-12.87h0s0,0,0,0c-59.2-43.52-94-114.9-111.94-163.34h0a211.39,211.39,0,0,1-23.19-2.19,420.94,420.94,0,0,0,35.57,99.81c22.92,45.37,53.27,85.7,87.87,117.62,33,30.43,56.23,74.5,71.52,112.43,0,0,0,0,0,0a504.28,504.28,0,0,1,24.16,76.33Z" transform="translate(0 0)"/><path class="cls-3" d="M3522.51,1403.81c2.56-.9,5.22-1.87,8-2.93a315.19,315.19,0,0,0,88.7-51.65,301,301,0,0,0,22.36-20.49,168.55,168.55,0,0,1-11.25-22.29c-1.82,1.2-3.69,2.38-5.59,3.53a268.64,268.64,0,0,1-90.78,34.7c-3.37.65-6.65,1.18-9.77,1.66Q3523.33,1375.07,3522.51,1403.81Z" transform="translate(0 0)"/><path class="cls-8" d="M3531,800.07c51-16.91,114.35,16.2,84.65,133-42.06,165.49,130.84,248.92,281,274.3-12.36-24.91-27.3-47.24-43.88-65.54-83.18-91.74,2.58-221.64-129.84-332C3677.51,772.06,3600.29,768.07,3531,800.07Z" transform="translate(0 0)"/><path class="cls-9" d="M3417,1886.37c16-22.18,57.25-85.62,53.86-145.63-4.18-74.29-27.76-132.8-27.76-132.8C3431.21,1703.87,3422.87,1799.6,3417,1886.37Z" transform="translate(0 0)"/><path class="cls-9" d="M3527.88,1591.77c-.85-38.79-.82-75.41-.19-109.47.55-29,1.53-56.26,2.79-81.43,0,0-13.76,1.09-29.49,3C3486.63,1405.49,3502.36,1492.5,3527.88,1591.77Z" transform="translate(0 0)"/><ellipse class="cls-6" cx="1727.74" cy="2455.1" rx="709.17" ry="64.86"/><ellipse class="cls-6" cx="2944.16" cy="2595.14" rx="442.5" ry="64.86"/><path class="cls-12" d="M2256.16,1063.75a28.6,28.6,0,0,1-2.47,2.33c-10.6,9-27.08,11-38.64,3.28-12.52-8.31-16.74-24.53-19.1-39.37l-18.23-21.37-3.49-4.09-1.69-2c-.19-4.78,3.43-8.23,7.92-10.46a31.55,31.55,0,0,1,6.95-2.42c14.65-3.32,30.31-3.3,44.41,1.92s26.41,16,31.77,30.06S2266.51,1052.86,2256.16,1063.75Z" transform="translate(0 0)"/><path class="cls-16" d="M2200.33,1131.36a20.88,20.88,0,0,1,2.81,3.81c9.79,17.29-10.22,32.59-21.66,42.63,8.45-7.42-6.89-34-5.42-43.82C2178.29,1119.11,2192.75,1123.14,2200.33,1131.36Z" transform="translate(0 0)"/><path class="cls-17" d="M2094.72,1209.51a34.54,34.54,0,0,1-8.93,2.48c-14.56,2.16-22.39-3.22-26.58-9.15a54.59,54.59,0,0,1,13.57.55C2080.29,1204.57,2087.54,1207,2094.72,1209.51Z" transform="translate(0 0)"/><path class="cls-3" d="M2079.3,1054.85c-1.9-2.95-4.06-5.17-6.65-5.51-8.48-1.13-19,12.14-25,16.8-10.61,8.23-19.8,12.34-32.5,15.56-1.77-3.72-3.72-8.07-5.41-12.67,7.23-1.09,14.63-2.89,20-5.56,10.65-5.3,12.71-18.08,21-25.63C2066.85,1023.16,2073.42,1039.33,2079.3,1054.85Z" transform="translate(0 0)"/><path class="cls-18" d="M2195.43,1138.38c1.29,4.37,2.57,9.2.72,13.37a17.94,17.94,0,0,1-4.48,5.57,74.21,74.21,0,0,1-10.37,8.27c2.27-8.5-4-17.87,1.43-26.3C2185.71,1134.67,2193.23,1131,2195.43,1138.38Z" transform="translate(0 0)"/><path class="cls-18" d="M2100.92,1343.82c-10.29-7.48-31.11-50.63-33-67l1.43-.45a239.28,239.28,0,0,0,28,43,14.35,14.35,0,0,0,4.82,4.3c3.67,1.66,7.92.07,11.62-1.52,32.45-13.91,61.31-37.45,77.69-69.24C2195.7,1273.43,2112.09,1353,2100.92,1343.82Z" transform="translate(0 0)"/><path class="cls-18" d="M2250.46,2283.62c0-3.84-7.59-13.48-9.49-17.12-5.75-11-11.78-21.84-18-32.61q-20.11-34.82-41.1-69.12c.51.84-85.9,49.32-84.62,57.32,1.07,6.73,23.18,14.43,28.18,18.34,16.58,12.94,25,32.89,38.07,48.53,14.21,17,24,37.72,29.57,59.18C2220.62,2330.31,2249.21,2321.72,2250.46,2283.62Z" transform="translate(0 0)"/><path class="cls-19" d="M2202.75,2353l.43.08c16.5,2.82,40.72-22.05,52.37-31.44,4.68-3.78,16.77-7.09,16.12-14.54a12.06,12.06,0,0,0-2.42-5.42c-6.73-10.12-13-21.25-20.75-30.47-7.83,5.33-71.71,44-70.73,45.46C2183.82,2326,2190.44,2350.39,2202.75,2353Z" transform="translate(0 0)"/><path class="cls-20" d="M2313.7,2357.9c-.63,7.83-7,14-14,17.75a128.11,128.11,0,0,0-12.29,8.27c-5.29,3.85-10.69,7.88-14.35,10a47,47,0,0,0-7.92,5.75c-7.8,7-13.56,16.34-18.31,25.79-6.21,12.4-11.24,25.56-19.5,36.69-8.54,11.53-20.15,20.35-31.75,28.78-1.12.81-2.26,1.64-3.4,2.44-9.07,6.45-18.75,12.41-29.69,13.88a24.93,24.93,0,0,1-6.68.11,17.79,17.79,0,0,1-2.26-.47,22.48,22.48,0,0,1-8.95-5.39c-15-13.83-16.63-39.79-3.41-55.35l.25-.29c4.94-5.69,11.31-9.92,16.73-15.15,8.51-8.24,14.18-18.47,18.11-29.61,4.78-13.54,7-28.41,8.68-42.71,1-8.36,2.84-18.18,10.47-21.69,3.58-1.64,7.68-1.46,11.6-1.66a57,57,0,0,0,36.13-16c9-8.68,16.87-33.11,31.55-23.8.35.23.72.47,1.08.74,4.93,3.6,8.38,8.81,11.72,13.91l16.74,25.6c.78,1.17,1.54,2.35,2.31,3.52C2310.34,2344.75,2314.26,2351.07,2313.7,2357.9Z" transform="translate(0 0)"/><path class="cls-21" d="M2306.59,2339c3.75,5.74,7.67,12.05,7.11,18.88-.63,7.83-7,14-14,17.76s-19.83,14.32-26.64,18.24c-12,6.92-20,19.15-26.23,31.55s-11.23,25.55-19.5,36.7c-8.54,11.52-20.14,20.34-31.76,28.77-10,7.31-20.77,14.66-33.09,16.32a24.84,24.84,0,0,1-6.67.1,42.82,42.82,0,0,1-8-8.24c-7.15-9.72-18.76-15.35-12.17-25.46s36.62-20.48,47.55-27.81c16.77-11.24,32.81-23.52,48.51-36.2,27.65-22.33,52.87-44.33,72.55-74.13C2305.06,2336.67,2305.82,2337.85,2306.59,2339Z" transform="translate(0 0)"/><path class="cls-22" d="M2274.74,2295.25c-4.28,29.56-5.32,59.8-8,89.62-.45,4.91-.94,9.85-1.54,14.79-7.8,7-13.56,16.34-18.31,25.79-6.21,12.4-11.24,25.56-19.5,36.69-8.54,11.53-20.15,20.35-31.75,28.78-1.12.81-2.26,1.64-3.4,2.44-9.07,6.45-18.75,12.41-29.69,13.88a24.93,24.93,0,0,1-6.68.11,17.79,17.79,0,0,1-2.26-.47,22.48,22.48,0,0,1-8.95-5.39c-15-13.83-16.63-39.79-3.41-55.35l.25-.29c4.94-5.69,11.31-9.92,16.73-15.15,8.51-8.24,14.18-18.47,18.11-29.61,4.78-13.54,7-28.41,8.68-42.71,1-8.36,2.84-18.18,10.47-21.69,3.58-1.64,7.68-1.46,11.6-1.66a57,57,0,0,0,36.13-16C2252.2,2310.37,2260.06,2285.94,2274.74,2295.25Z" transform="translate(0 0)"/><path class="cls-18" d="M2192.23,2406.17c2.87-3,4.27-16.07,5.54-20.3q5.7-19.12,10.61-38.59,10.66-41.9,20.23-84c-.23,1-103.12-26.5-108.13-19.38-4.22,6,7,28.51,7.93,35.27,3,22.4-5.44,44.07-7.11,65.92-1.82,23.74-9.8,47.07-21.65,67.73C2134.23,2419.72,2162.68,2434.56,2192.23,2406.17Z" transform="translate(0 0)"/><path class="cls-19" d="M2103.43,2423.8c.09.13.17.25.27.38,10.58,14.56,47.88,13.58,63.89,15.09,6.45.61,18.24,7.13,23.32.92,1.36-1.67,1.81-3.88,2.2-6,2.42-12.84,6-26.1,6.9-39-10-1.77-88.18-20-88.55-18.07C2109.15,2388.78,2095.94,2412.53,2103.43,2423.8Z" transform="translate(0 0)"/><path class="cls-20" d="M2193.86,2490.93c-1.41,7.23-3.13,15-8.69,19.87-6.36,5.55-16,5.52-24.08,3.18a134,134,0,0,0-15.65-2.85c-7-1-14.15-2-18.54-3.09-14.45-3.71-29.76-.28-43.85,4.6s-27.83,11.24-42.55,13.61c-15.22,2.46-30.77.55-46-1.68-1.48-.21-3-.43-4.44-.66-11.82-1.85-23.74-4.53-33.27-11.61a26.27,26.27,0,0,1-5.22-4.93,17.87,17.87,0,0,1-1.39-2,24.19,24.19,0,0,1-2.85-10.87c-1.19-21.93,17-43.1,38.91-45.15l.41,0c8.06-.68,16.14.85,24.24.88,12.73,0,24.77-3.57,36.16-9.19,13.84-6.83,26.71-16.61,38.73-26.37,7-5.71,15.81-11.86,24.33-8.83,4,1.42,7,4.63,10.17,7.42a61.37,61.37,0,0,0,39.8,14.81c13.78.08,39-13.46,42.42,6.73,1.08,6.47-.17,13.08-1.43,19.5q-3.15,16.14-6.31,32.27C2194.45,2488,2194.15,2489.45,2193.86,2490.93Z" transform="translate(0 0)"/><path class="cls-21" d="M2193.86,2490.93c-1.41,7.23-3.13,15-8.69,19.87-6.36,5.55-16,5.52-24.08,3.18s-26-3.85-34.19-5.94c-14.45-3.71-29.76-.28-43.85,4.6s-27.83,11.24-42.55,13.61c-15.22,2.46-30.77.55-46-1.68-13.23-1.91-27-4.3-37.71-12.27a26.27,26.27,0,0,1-5.22-4.93,45.94,45.94,0,0,1,0-12.34c1.79-12.85-2.93-25.89,9.73-28.72,12.81-2.87,43.56,11.71,57.46,14.27,21.35,3.93,42.91,6.51,64.51,8.53,38,3.56,73.95,5.54,111.46-2.62C2194.45,2488,2194.15,2489.45,2193.86,2490.93Z" transform="translate(0 0)"/><path class="cls-18" d="M2841.8,2500.46c3.3-3,5.71-17.08,7.36-21.57q7.46-20.29,14.09-41,14.36-44.58,27.55-89.51c-.32,1.1-109.71-35.62-115.61-28.26-5,6.19,5.66,31.3,6.19,38.67,1.78,24.43-8.86,47.28-12.15,70.8-3.57,25.55-13.77,50.23-28,71.77C2778.17,2511.2,2807.93,2529.16,2841.8,2500.46Z" transform="translate(0 0)"/><path class="cls-19" d="M2744.59,2513.52l.26.43c10.46,16.46,50.86,17.93,68.07,20.64,6.93,1.1,19.23,8.94,25.15,2.57,1.59-1.71,2.21-4.07,2.79-6.33,3.48-13.72,8.2-27.82,10.09-41.73-10.72-2.6-94-27.55-94.53-25.54C2753.14,2476,2737.25,2500.83,2744.59,2513.52Z" transform="translate(0 0)"/><path class="cls-21" d="M2837.83,2592.22c-2,7.72-4.41,16-10.74,20.9-7.26,5.58-17.63,4.89-26.25,1.81a144.26,144.26,0,0,0-16.74-4.14c-7.46-1.57-15.16-3.09-19.83-4.6-15.37-5-32.16-2.31-47.73,2s-30.85,10.27-46.93,11.85c-16.62,1.63-33.31-1.5-49.66-4.93l-4.76-1c-12.65-2.8-25.36-6.5-35.19-14.8a28.87,28.87,0,0,1-5.3-5.69,18.35,18.35,0,0,1-1.37-2.3,26.11,26.11,0,0,1-2.34-11.95c.19-23.78,21.35-45.45,45.12-46.19h.45c8.76-.19,17.4,2,26.15,2.6,13.77.91,27-2.2,39.72-7.5,15.43-6.45,30-16.16,43.66-25.9,8-5.69,17.9-11.75,26.9-7.9,4.21,1.81,7.26,5.48,10.51,8.71a66.39,66.39,0,0,0,42,18.71c14.9,1,43.11-11.91,45.42,10.15.73,7.07-1.07,14.12-2.87,21l-9,34.46C2838.66,2589.06,2838.24,2590.65,2837.83,2592.22Z" transform="translate(0 0)"/><path class="cls-23" d="M2837.83,2592.22c-2,7.72-4.41,16-10.74,20.9-7.26,5.58-17.63,4.89-26.25,1.81s-27.86-5.92-36.57-8.74c-15.37-5-32.16-2.31-47.73,2s-30.85,10.27-46.93,11.85c-16.62,1.63-33.31-1.5-49.66-4.93-14.17-3-28.88-6.48-39.95-15.82a28.87,28.87,0,0,1-5.3-5.69,50,50,0,0,1,.86-13.34c2.81-13.77-1.41-28.2,12.47-30.4,14-2.24,46.31,15.61,61.17,19.31,22.81,5.7,46,10,69.17,13.59,40.89,6.43,79.59,11,120.7,4.71C2838.66,2589.06,2838.24,2590.65,2837.83,2592.22Z" transform="translate(0 0)"/><path class="cls-18" d="M3153.11,2015.73c-3.36-1.8-15.38.3-19.47.26-12.32-.13-24.69,0-37,.41q-40,1.21-80,3.46c1-.06,2.75,98.52,10.36,101.17,6.41,2.22,23.58-13.52,29.36-16.07,19.16-8.42,40.6-6.41,60.48-10.5,21.59-4.44,44.38-3.3,65.8,2C3180,2063.89,3185.92,2034.78,3153.11,2015.73Z" transform="translate(0 0)"/><path class="cls-19" d="M3191.47,2090.26c.1-.11.19-.23.28-.34,10.25-13.14-.14-46.08-2.89-60.71-1.1-5.89,1.69-18-5.14-21a12.19,12.19,0,0,0-5.89-.43c-12,1.13-24.75,1.37-36.49,3.83,1,9.38,4.75,83.57,6.53,83.42C3158.85,2094.11,3183.36,2099.8,3191.47,2090.26Z" transform="translate(0 0)"/><path class="cls-21" d="M3228.12,1992.64c6.8-.58,14.17-1,19.9,2.66,6.57,4.25,9,12.79,9,20.61a125.39,125.39,0,0,0,1.46,14.67c.88,6.45,1.86,13.08,2,17.28.4,13.8,7.36,26.55,15.29,37.85s17.11,21.89,23,34.38c6.08,12.92,8.34,27.25,10.26,41.4.19,1.36.38,2.74.54,4.12,1.37,11,2,22.28-1.83,32.57a25.19,25.19,0,0,1-3,5.9,18.77,18.77,0,0,1-1.47,1.76,22.45,22.45,0,0,1-8.94,5.31c-19.21,6.66-42.71-4.17-50.12-23.1,0-.12-.09-.23-.13-.35-2.67-7-3.37-14.59-5.41-21.8-3.21-11.34-9.5-21.13-17.41-29.83-9.62-10.57-21.61-19.53-33.36-27.73-6.87-4.78-14.59-11.05-14.06-19.39.24-3.91,2.33-7.41,4-10.95a56.8,56.8,0,0,0,3-39.2c-3.45-12.28-21.94-31.29-4.84-39.47,5.48-2.61,11.68-3.18,17.72-3.7q15.16-1.32,30.32-2.62Z" transform="translate(0 0)"/><path class="cls-23" d="M3228.12,1992.64c6.8-.58,14.17-1,19.9,2.66,6.57,4.25,9,12.79,9,20.61s3.21,24.13,3.44,31.95c.4,13.8,7.36,26.55,15.29,37.85s17.11,21.89,23,34.38c6.08,12.92,8.34,27.25,10.26,41.4,1.67,12.26,3.06,25.11-1.29,36.69a25.19,25.19,0,0,1-3,5.9,42.48,42.48,0,0,1-11,3.12c-11.89,1.69-22.3,9.22-28-1.32s-.7-41.76-2-54.78c-2-20-5.16-39.85-8.88-59.58-6.55-34.76-13.95-67.22-30.79-98.51Z" transform="translate(0 0)"/><path class="cls-24" d="M3088.78,2008a11.87,11.87,0,0,1,3.53-4.42c11.72-8.52,23.91,1.55,26.45,13.6a566.79,566.79,0,0,1,10.79,77.28c-2.21.42-48.63,18.44-48.51,16.63q2.13-34.11,4.26-68.21C3085.81,2034.79,3084.15,2017.27,3088.78,2008Z" transform="translate(0 0)"/><path class="cls-19" d="M3108.59,2117.12c-.19-2.17-109.68,18.78-121.15,19.09-30.44.82-61.11-2.14-91.44-7.25l-3-.51c-24.86-4.32-49.46-10-73.5-16.32a99.91,99.91,0,0,1-42.78-22.64c-28.46-25.54-41.47-66.07-45.67-105.59-6.58-61.84,2.93-125.35,16-185.75q6.33-29.24,14.28-58.08,1.89-6.87,3.88-13.74c2.17-7.52,3.84-15.75,6.93-23a25.39,25.39,0,0,1,6.76-9.81c8.94-7.58,20.77-3,32.23-13.91,2.57-2.47,4.57-5.6,7.61-7.44,3.59-2.17,8-2.21,12.23-2.16q55.08.66,110.07,4.86a448.5,448.5,0,0,0-4,64.59c.1,10-1.21,22.82,1.5,32.44,1.62,5.72,5.88,9.77,7.21,15,4.71,18.62,2.48,40.94,5.11,60.2,0,.15,0,.31.07.48a407.92,407.92,0,0,0,10.17,51c.76,2.86,1.58,5.7,2.42,8.54,5.16,17.24,11.14,30.73,18.18,41.22,25.12,37.56,63.37,36.4,123.2,29.36A1198.4,1198.4,0,0,0,3108.59,2117.12Z" transform="translate(0 0)"/><path class="cls-25" d="M3108.59,2117.12c-.19-2.17-109.68,18.78-121.15,19.09-30.44.82-61.11-2.14-91.44-7.25l-3-.51c-8.35-4.06-16.74-8.09-25.31-11.94-20.91-9.42-62.12-13.44-75.95-33.69-18.41-26.92,9.87-76.6,17.94-103.75,13.11-44.07,25.13-89,27.35-135.11,1-20.08-1.24-41.54-13.5-57.46-6.88-8.92-16.36-15.39-25.69-21.7l-36.52-24.73q1.89-6.87,3.88-13.74c2.17-7.52,3.84-15.75,6.93-23a25.39,25.39,0,0,1,6.76-9.81c8.94-7.58,20.77-3,32.23-13.91,2.57-2.47,4.57-5.6,7.61-7.44,3.59-2.17,8-2.21,12.23-2.16q55.08.66,110.07,4.86a448.5,448.5,0,0,0-4,64.59c.1,10-1.21,22.82,1.5,32.44,1.62,5.72,5.88,9.77,7.21,15,4.71,18.62,2.48,40.94,5.11,60.2,0,.15,0,.31.07.48,1.28,10.18,2.47,43.93,10.17,51,.76,2.86,1.58,5.7,2.42,8.54,5.16,17.24,11.14,30.73,18.18,41.22,25.12,37.56,63.37,36.4,123.2,29.36A1198.4,1198.4,0,0,0,3108.59,2117.12Z" transform="translate(0 0)"/><path class="cls-19" d="M3098.5,1774.64c-33.9,234-170.41,637.22-231.43,676.8-38.37,24.89-139.11-19.08-136.14-69,.81-13.33,9.21-24.78,16.44-36,50.16-77.84,60.9-194.57,78.22-284.34,9.09-47.08,23.43-93.49,34.67-140.09,6.74-27.88,12.29-56,18.81-83.91,4.45-19,7.13-28.69,2.45-48.3-5.87-24.59-11.87-49.1-16.71-73.91-.14-.7-.27-1.4-.41-2.1-3.07-16.45-4.7-34.93,5.92-47.66,15.13-18.15,37.71-20.11,59.33-22.94l79.91-10.46,85.52-11.21C3109.68,1645.6,3109.05,1702,3098.5,1774.64Z" transform="translate(0 0)"/><g class="cls-26"><path class="cls-27" d="M3054,1622.61s34.58,29.18,7.56,164.26c-28.09,135.07-175,657-260.42,722.92" transform="translate(0 0)"/></g><path class="cls-16" d="M2713.63,1405.41c-4.6,20.71-5.33,38.71-15.55,57.9-10,18.77-23.66,35.46-38.69,50.43-14.35,14.27-32,36.08-52.47,32.2-13.24-2.52-28.25-11.49-39-19.62-25.19-19-45.44-45.21-64.19-70.28A1110.41,1110.41,0,0,1,2425.78,1336l0,0h0c-18.59-2.54-37.2-12.68-49.88-25.36-4.22-4.23-10.15-11-5.92-20.29,2.54-5.92,7.61-4.23,7.61-5.92.85-5.93-5.07-9.3,0-16.92,2.53-2.53,5.92-5.92,9.31-6.76,0-.84,5.91-1.69,5.91-2.54-2.54-7.61-4.23-12.68,5.08-18.6,3.38-1.69,6.76-3.38,11-2.54.84,0,5.07,2.54,5.91,1.69.85,0,1.7-5.07,2.55-5.92,2.53-4.23,8.44-6.76,12.67-7.6,11.85-1.7,16.92,5.92,21.14,15.22,0,.84,3.38,13.52,4.23,13.52a8.93,8.93,0,0,0,4.23-1.69c5.07-2.53,10.14,2.54,14.37,6.77,5.92,6.76,6.76,19.44,5.92,28.74s-3.23,15.53-8.57,20.82l99.66,95.76,18.37-35.66S2723.36,1365.43,2713.63,1405.41Z" transform="translate(0 0)"/><path class="cls-18" d="M2679.05,1492.94c19.45-33.5,30.26-70.24,34.58-87.53,9.72-40-124.27-36.74-124.27-36.74L2571,1403.25C2584,1428.11,2611,1463.77,2679.05,1492.94Z" transform="translate(0 0)"/><path class="cls-28" d="M2728.47,1469.52c-5.21,5.1-10.56,8.69-15.92,10.45-20.07,6.31-58.71-18.12-90.56-42.45-28.16-21.49-51-42.91-51-42.91,27-57.28,107-181.54,141.56-201C2825.19,1188.67,2784.24,1415,2728.47,1469.52Z" transform="translate(0 0)"/><path class="cls-20" d="M2712.55,1193.61c-34.58,19.45-114.55,143.72-141.56,201,0,0,103.74,97.25,141.56,85.36C2775.22,1459.44,2835.74,1188.21,2712.55,1193.61Z" transform="translate(0 0)"/><path class="cls-29" d="M2728.47,1469.52c-5.21,5.1-10.56,8.69-15.92,10.45-20.07,6.31-58.71-18.12-90.56-42.45,22.37-21.26,40.75-47.09,49.27-76.29,5.41-18.52,3.44-36.26,6.09-54.63,3.58-24.75,11.41-47.69,12.42-73.17,2.4,19.74-.14,39.31,3.66,58.51,4.22,21.25,12.55,42.12,17.45,63.34A780.1,780.1,0,0,1,2728.47,1469.52Z" transform="translate(0 0)"/><path class="cls-25" d="M3098.5,1774.64c-73.13,4.48-160.23-21.85-201-50.73l-33.07-10.11c-3.07-16.45-4.7-34.93,5.92-47.66,15.13-18.15,37.71-20.11,59.33-22.94l79.91-10.46,85.52-11.21C3109.68,1645.6,3109.05,1702,3098.5,1774.64Z" transform="translate(0 0)"/><path class="cls-20" d="M3103.73,1644.23c-28.72,31.18-183.92,86-283,71.36-31.39-4.64-57.16-16.27-71.46-37.86-15.13-22.69-7.57-80-41.07-272.32-22.69-131.84-94-224.76,142.65-256.1,58.35-6.49,110.22,0,155.6,15.13l38,158.11,21.46,89.35S3118.86,1628,3103.73,1644.23Z" transform="translate(0 0)"/><path class="cls-20" d="M3006.47,1164.44c-45.38-15.13-97.25-21.62-155.6-15.13-236.66,31.34-165.34,124.27-142.64,256.1,33.49,192.35,25.93,249.62,41.06,272.32,59.43,89.69,316.62,7.56,354.44-33.5,15.13-16.21-37.82-232.33-37.82-232.33l-59.44-247.46Z" transform="translate(0 0)"/><path class="cls-16" d="M2880,1072.58s4.32,57.28,30.26,77.81c0,0-50.79,85.37-81.05,81-30.25-5.4-49.7-32.41-47.54-49.7,1.08-16.21,15.13-23.78-5.41-62.68Z" transform="translate(0 0)"/><path class="cls-18" d="M2889.77,1115.81a174.07,174.07,0,0,1-8.65-43.23l-102.66,46.47c19.46,38.9,5.41,46.47,5.41,62.68-1.08,10.8,6.48,24.85,19.45,36.74,38.9-25.94,71.32-76.73,86.45-102.66Z" transform="translate(0 0)"/><path class="cls-16" d="M2810.88,887.8c-35.8-4.41-70.05,8.88-92.91,36.86-14.31,17.52-16,32.75-19,55.12-3.36,25.54-5.68,51.29-4.79,77.07.84,24.61,6.45,53,26.62,69.38,38.93,31.59,86.67,7.28,124.16-13.12,23-12.54,44-29.64,55.95-53.46a115.41,115.41,0,0,0,11.53-37.85C2922.19,952.64,2889.77,897.53,2810.88,887.8Z" transform="translate(0 0)"/><path class="cls-12" d="M2903.82,944c-2.17-4.32-6.49,11.89-43.22,20.53-15,3.53-6.38,39.51-2.21,47.27,3.89,7.25,8.66,13.58,9.88,21.91,6.38-3.1,13.32-21.46,21.34-9.29,2.76,4.18-.2,14-.76,18.51-.36,2.87-3.08,35.84-4.24,36.07,4.8-.79,8.11-5.19,10.37-9.5,7.82-14.9,16-27.65,18.88-45C2918.26,997.9,2916.45,968.21,2903.82,944Z" transform="translate(0 0)"/><path class="cls-16" d="M2903.8,1009.52c-7.27-7.12-21.21-.07-24.68,13-1.8,6.77,3.45,10.48,5.61,16.17,2.48,6.54.43,9.6.74,15.59.22,4.44-3.53,7,3.49,8.59,5.79,1.27,9.61-5.63,11.39-9.89,4.24-10.15,8.84-21.56,7.78-32.71C2907.64,1015.22,2906,1011.7,2903.8,1009.52Z" transform="translate(0 0)"/><path class="cls-21" d="M3133.67,1448.07q-9.26,6.42-19.13,12.45l-48.63-48.62-21.46-89.35a673.29,673.29,0,0,1,82.23,121.74Z" transform="translate(0 0)"/><path class="cls-29" d="M3103.73,1644.23c-28.72,31.18-183.92,86-283,71.36,6.07.9,61-73.6,69-82.21,19.57-20.92,39.66-40,63.64-55.76,53.21-35,89.11-68.3,83.9-139-4-54.12-36.06-104.62-32.4-158.78l1.41,1.42q19.92,19.83,38.12,41.29l21.46,89.35S3118.86,1628,3103.73,1644.23Z" transform="translate(0 0)"/><path class="cls-16" d="M3233.29,1540.19c-76.92,67.43-170.78,113.16-182.73,118.86-6.46,13-20,23.14-31.76,29-5.08,3.05-13.22,6.09-20.33,5.08-3-1-5.08-5.08-7.11-5.08-7.12-2-11.18,5.08-19.31-1-3.05-3-6.1-7.11-7.11-11.18,0-1,0-6.09-1-6.09-7.11-3.06-16.26,3-22.35-8.14-2-3.05-3.05-7.11-2-12.19,0-1,3-6.1,2-7.11s-6.11-2-7.12-3c-4.07-4.07-6.09-10.16-7.12-15.24-1-13.21,8.13-19.32,19.32-23.37,0,0,15.24-3,15.24-4.07,0,0-1-3.05-2-4.06-2-7.12,4.06-12.2,9.14-16.27,8.13-6.09,22.36-6.09,33.53-5.08,11.69,1.8,18.61,5.19,24.27,12.29l128.25-122.29-33.53-34.54,87.39-89.43S3332.89,1451.78,3233.29,1540.19Z" transform="translate(0 0)"/><path class="cls-18" d="M3233.3,1365.71a313.83,313.83,0,0,0-24.39-28.45l-86.38,89.42,30.49,31.51C3185.54,1442.94,3226.18,1414.49,3233.3,1365.71Z" transform="translate(0 0)"/><path class="cls-20" d="M3229.08,1335.17c-18.93,46.37-51.94,82.79-95.41,112.9l-7-3.78a673.29,673.29,0,0,0-82.23-121.74q-18.19-21.45-38.12-41.29c-5.26-35.92-4.8-75.06.14-116.82C3148,1212,3229.08,1335.17,3229.08,1335.17Z" transform="translate(0 0)"/><path class="cls-18" d="M2454.54,1248c-1.7,2.53-3.39,5.92-4.23,6.76-1.69,2.54-2.54,4.23-4.23,6.76l-2.54,5.08c-3.38,7.61-11,22,0,26.21,8.46,3.38,16.91-3.38,22-9.3.84-.85,5.07-5.92,4.22-8.46s-2.53.85-2.53,2.54a25.61,25.61,0,0,1-6.77,6.76c-4.22,4.23-11,8.46-16.91,4.23a11.59,11.59,0,0,1-2.53-3.38c-1.7-7.61,5.07-18.6,9.3-24.52.84-1.69,3.38-4.23,5.92-5.92C2456.23,1253.09,2455.38,1250.55,2454.54,1248Z" transform="translate(0 0)"/><path class="cls-18" d="M2412.26,1237c.84.85.84,2.54.84,4.23,2.54,6.77,6.77,12.69,11,17.76,2.53,2.53,5.07,5.92,7.61,7.61s4.22,2.53,6.76,4.23a8.54,8.54,0,0,1,2.54.84c.84,0,.84-3.38.84-3.38-.84-.85-2.53-.85-3.38-.85-1.69-.84-3.38-2.53-5.07-3.38a61.18,61.18,0,0,1-15.22-21.14,9.62,9.62,0,0,1-2.54-5.92h0c0,.85-1.69.85-3.38,0Z" transform="translate(0 0)"/><path class="cls-18" d="M2393.66,1257.32c-.85.84-2.54.84-4.23.84a45.82,45.82,0,0,0,5.92,7.61c6.76,7.61,15.22,16.91,26.21,18.6,6.76.85,11.84-2.53,14.37-9.3.85-2.53,2.54-10.14-2.53-11,0,0,0,1.69.84,1.69v2.54c0,2.54-.84,5.92-2.53,7.61-4.23,5.92-12.69,3.38-16.92.84-6.76-3.38-12.68-9.3-16.91-15.22a10.1,10.1,0,0,1-4.22-4.22Z" transform="translate(0 0)"/><path class="cls-18" d="M2377.59,1284.37c6.77,7.61,15.22,14.38,26.21,11.84a39.91,39.91,0,0,0,5.92-2.54,14,14,0,0,0,4.23-10.14,5.45,5.45,0,0,0-5.07-5.07,19.14,19.14,0,0,1,.84,3.38c0,1.69,0,4.23-.84,5.92-2.54,5.07-9.3,7.61-15.22,5.91-5.08-1.69-9.3-5.91-12.69-9.3-.84-.84-.84-1.69-2.53-2.53v2.53c.84-.84,0-.84-.85,0Z" transform="translate(0 0)"/><path class="cls-18" d="M2396.19,1295.37c4.23,4.22,5.92,14.37-1.69,15.22-5.07.84-11-2.54-14.37-5.92-.85-.85-3.38-4.23-4.23-4.23s-.84,1.69-.84,2.54c.84,2.53,2.53,5.07,4.22,5.91,5.92,4.23,15.22,7.61,22,2.54,2.53-2.54,3.38-9.3,1.69-12.68-.85-.85-1.69-2.54-2.54-3.38" transform="translate(0 0)"/><path class="cls-16" d="M1992.87,1574c-21.9,35.81-130.79,111.92-147.94,123.78a73.44,73.44,0,0,1-2.28,26.42c-1.08,4.33-4.31,11.89-13,13-6.48,1.08-7.57-4.32-8.65-3.24-5.4,2.16-5.4,8.64-13,7.56-2.16,0-6.49-1.08-8.65-3.24,0-1.08-3.24-4.32-4.32-4.32-5.41,5.41-7.57,8.64-16.21,4.32a9.74,9.74,0,0,1-6.48-6.48c0-1.08,0-4.33-1.08-5.41-1.08,0-4.33,1.08-5.41,1.08-4.32,0-7.56-3.24-10.8-6.48-5.4-7.56-1.08-16.21,3.24-22.69,1.08,0,8.64-8.65,8.64-8.65,0-1.08-2.16-1.08-3.24-2.15-4.32-3.25-2.16-9.73-1.08-14.06,2.16-7.56,11.89-14,19.46-17.28,9.72-4.33,16.2-4.33,23.77-1.08l4.63,2.68c10.53-12.42,78.12-92.18,98-115.07,22.69-25.94,68.07-217.21,84.29-243.14,14-22.69,49.7-41.06,49.7-41.06C2158.19,1287.63,2017.72,1531.84,1992.87,1574Z" transform="translate(0 0)"/><path class="cls-18" d="M1992.86,1298.43c14.05-22.69,49.71-41.06,49.71-41.06,91.85,23.77,22.69,182.62-22.69,266.91a4,4,0,0,1-1.08-3.24c-8.65-18.37-16.21-35.66-30.26-49.71-11.89-13-25.93-23.77-41.06-33.5C1965.85,1378.4,1984.22,1313.56,1992.86,1298.43Z" transform="translate(0 0)"/><path class="cls-30" d="M1992.86,1298.43c14.05-22.69,49.71-41.06,49.71-41.06,72.4,18.37,45.39,121,7.56,205.31-33.49-7.56-76.72-22.69-108.06-37.82C1959.36,1368.67,1984.22,1312.48,1992.86,1298.43Z" transform="translate(0 0)"/><path class="cls-18" d="M1762.69,1695c3.24,1.08,5.41,0,6.49,0H1780c6.49-1.08,21.61-1.08,20.53-11.89-1.08-7.57-10.8-11.89-17.29-13-1.08,0-6.48-1.08-8.64,1.08-1.08,1.08,2.16,1.08,3.24,1.08,3.24,0,5.4,1.08,8.65,2.16,4.32,2.17,10.8,4.33,10.8,10.81,0,1.08-1.08,2.16-1.08,3.24-5.4,4.32-16.21,4.32-22.69,3.24-1.08,0-4.32-1.08-6.49-1.08C1765.93,1690.69,1764.85,1692.85,1762.69,1695Z" transform="translate(0 0)"/><path class="cls-18" d="M1773.5,1730.68l3.24-3.25c4.32-4.32,6.48-10.8,8.65-16.21l3.24-9.72V1695c0-1.08,0-2.17-1.08-2.17a10.9,10.9,0,0,0-3.25,1.09c0,1.08,1.09,2.16,1.09,3.24,1.08,2.16,0,3.24,0,5.4-1.09,7.56-4.33,14.05-8.65,21.61-1.08,1.08-2.16,3.24-3.24,4.32h0v2.17Z" transform="translate(0 0)"/><path class="cls-18" d="M1798.35,1737.16c1.08,1.08,1.08,1.08,3.24,2.16a52.57,52.57,0,0,0,3.25-7.56c3.24-8.65,6.48-19.45,2.16-28.1-3.24-5.4-7.57-8.64-13-6.48-2.16,1.08-8.64,3.24-6.48,6.48l1.08-1.08c1.08-1.08,1.08-1.08,2.16-1.08,2.16-1.08,4.32-2.16,6.48-1.08,6.49,1.08,7.57,7.56,8.65,13,1.08,6.48-1.08,13-4.33,19.45-2.16,0-3.24,2.16-3.24,4.32Z" transform="translate(0 0)"/><path class="cls-18" d="M1814.56,1712.31c-1.08,0-3.24,0-4.32,1.08l-2.16,2.16a5.1,5.1,0,0,1,1.08-6.49,10.5,10.5,0,0,1,9.72-1.08,14.84,14.84,0,0,1,4.33,3.24c6.48,6.49,5.4,16.21,3.24,25.94l-1.08-1.08-1.08-1.08h0v-1.08c1.08-4.32,2.16-9.73,1.08-14.05C1823.21,1715.55,1820,1712.31,1814.56,1712.31Z" transform="translate(0 0)"/><path class="cls-18" d="M1825.37,1717.71c1.08-4.32,8.64-10.81,13-5.4,3.24,3.24,3.24,9.72,2.16,14,0,1.08-1.09,4.33-1.09,5.41s1.09-1.08,1.09-1.08c1.08-1.08,3.24-4.33,3.24-6.49,1.08-6.48-1.08-16.21-8.65-17.29-3.24-1.08-8.64,1.08-10.8,4.32a4,4,0,0,0-1.08,3.25" transform="translate(0 0)"/><path class="cls-19" d="M2175.49,2290.43a88.46,88.46,0,0,1-8.69,6.51c-37.9,24.77-67.75-4.68-100.35-57.22-17.12-27.58-35-61.52-55.22-97.33-47.41-84-23.75-312.1-2.94-418.08,6.21-31.71,12.17-52.49,15.91-55.23,51.86-34.57,162.09,107,147,151.28-14,42.15-4.32,205.33,44.31,287.44,11.28,18.81,18.56,35.88,22.28,51.65C2250.08,2211.66,2223.62,2249.77,2175.49,2290.43Z" transform="translate(0 0)"/><path class="cls-25" d="M2237.75,2159.45c-17,49.07-40,95.52-70.95,137.49-37.9,24.77-67.75-4.68-100.35-57.22,2.38-120.9,22.92-239.48,7.87-359.36-2.86-22.81-6.24-45.72-13.64-67.5-11.1-32.71-30.69-61.41-52.39-88.55,6.21-31.71,12.17-52.49,15.91-55.23,51.86-34.57,162.09,107,147,151.28-14,42.15-4.32,205.33,44.31,287.44C2226.75,2126.61,2234,2143.68,2237.75,2159.45Z" transform="translate(0 0)"/><path class="cls-19" d="M2300.84,1762c-5,41-8.93,82.08-12.38,123.23-10.95,130.42-17.12,261.38-37.45,390.8-5.26,33.41-20.24,63-23.69,95.8-42.53-3.39-93.23-17.11-130.08-38.7,12.47-45.22-.11-78.78,1.37-124.59,2-62.42,5.62-124.77,9.59-187.09,3.44-54,7.28-108,11.17-161.9,1.31-18.12,2.31-36.29,3.89-54.38,3-33.87-15.86-65.91-37.59-91.35-5.13-6-10.7-11.8-14.12-18.9-3.77-7.81-4.68-16.64-5.53-25.27-2.91-29.33,15-42.55,38.89-48.6,24.55-6.22,55.39-4.86,76.23-5.65a906,906,0,0,1,105.64,1.79S2310.56,1673.4,2300.84,1762Z" transform="translate(0 0)"/><path class="cls-25" d="M2301.79,1762c-5,41-8.92,82.08-12.38,123.23-27.57-2.31-55.22-11.28-80.19-21.46-51.15-20.84-48.87-64.58-57.77-113-5.48-29.73-9.73-26.75-41.08-38.38l-20.82-46.12a116.39,116.39,0,0,1,16.31-45.27c24.56-6.22,55.39-4.86,76.24-5.65a906,906,0,0,1,105.64,1.79S2311.51,1673.4,2301.79,1762Z" transform="translate(0 0)"/><path class="cls-27" d="M2234.92,1643.15s5.4,69.16,1.08,143.72-47.55,540.3-62.68,578.12" transform="translate(0 0)"/><path class="cls-17" d="M2246.81,1262.77c-30.26-16.21-204.24-53-235.58,30.26-40,105.9-30.25,132.91-22.69,178.3,16.21,92.93,21.61,132.91,16.21,193.43-4.32,53,221.52,35.66,303.65-4.32-32.42-63.76-58.35-182.63-40-276.64C2289,1283.3,2270.58,1275.74,2246.81,1262.77Z" transform="translate(0 0)"/><path class="cls-30" d="M2006.91,1664.76c0-3.24,1.08-5.4,1.08-7.57,245.3,43.23,198.83-338.23,194.51-341.47l45.38-49.71c23.78,13,42.15,16.21,22.7,116.71-17.29,94,8.64,212.88,40,276.64C2228.43,1700.42,2002.59,1717.71,2006.91,1664.76Z" transform="translate(0 0)"/><path class="cls-16" d="M2100.92,1343.82c-10.29-7.48-31.11-50.63-33-67-.29-2.54-.13-4.42.6-5.44,6.47-8.64,21.61-8.64,10.8-45.38l89.69-33.5s4.33,43.23,20.53,57.27a5.21,5.21,0,0,1,2,3.19C2195.7,1273.43,2112.09,1353,2100.92,1343.82Z" transform="translate(0 0)"/><path class="cls-18" d="M2079.31,1226l88.61-33.5s1.08,18.37,7.56,35.66c-13,14-30.25,25.94-49.7,31.34a118.32,118.32,0,0,1-47.55,3.24C2083.63,1256.29,2086.88,1247.64,2079.31,1226Z" transform="translate(0 0)"/><path class="cls-16" d="M2111.73,1018.55c-89.69-4.32-101.58,58.36-99.42,120-3.24,47.55,3.24,91.85,65.92,99.42,49.71,7.56,121-34.58,127.51-105.9C2210.06,1071.5,2180.89,1024,2111.73,1018.55Z" transform="translate(0 0)"/><path class="cls-18" d="M2111.73,1018.55c69.16,5.41,98.33,51.87,94,112.39-3.24,1.08-6.48,3.24-10.8,2.16-1.33.66-20.56,4.57-16.35-3a20,20,0,0,0-2.48,9.21c-20.51-4.77-34.93-22.65-52.84-33.72-10.21-6.3-21.61-10.4-32.2-16s-20.73-13.31-25.77-24.2c-7.87,7.68-19.92,13.28-30.53,15.62-3.07.67-4.8-1.51-8.54-.06s-7.85,7.25-10.68,10.08C2021,1048.81,2044.73,1015.31,2111.73,1018.55Z" transform="translate(0 0)"/><path class="cls-3" d="M2253.69,1066.08c-10.6,9-27.08,11-38.64,3.28-12.52-8.31-16.74-24.53-19.1-39.37l-18.23-21.37-9.22,1.21-11.46,1.51a21.17,21.17,0,0,1,8.86-16.42c4.3-3,9.27-3.7,14.56-2.82,19.38,3.23,43,27.71,52.73,38.23,7.63,8.21,14.55,17.35,18.37,27.9A48.91,48.91,0,0,1,2253.69,1066.08Z" transform="translate(0 0)"/><path class="cls-12" d="M2212.35,1170.22a108.77,108.77,0,0,1-11,10.78c-5.66,4.84-11.91,9.45-19.23,10.8,6.56-16.19,2.4-32.84-1-49.32-4.7-23.06-27.19-23.56-44.46-34.24-16.16-10-36.89-22.46-48.84-37.17-2.65-3.26-5.19-10.91-8.59-16.22-1.9-2.95-4.06-5.17-6.65-5.51-8.48-1.13-19,12.14-25,16.8-10.61,8.23-19.8,12.34-32.5,15.56-1.77-3.72-3.72-8.07-5.41-12.67-3.16-8.58-5.46-18-4.23-25.89,1.35-8.64,8.3-17.76,13.41-24.85,11-15.22,26.64-26.28,44.13-32.77,35.15-13,76.84-8.69,109.43,9.4,36.36,20.18,56.85,47.43,62.51,88.69C2239.55,1116.87,2233.32,1146.4,2212.35,1170.22Z" transform="translate(0 0)"/><path class="cls-3" d="M2216,1161.48q-1.65,4.44-3.66,8.74a108.77,108.77,0,0,1-11,10.78c-5.66,4.84-11.91,9.45-19.23,10.8,6.56-16.19,2.4-32.84-1-49.31-3-14.74-8.55-18.21-21.68-23.87a77.66,77.66,0,0,1-13.08-7.43c-.87-.59-1.73-1.19-2.58-1.81,2.85.86,5.71,1.66,8.59,2.43,10.87,2.88,18.95-2.5,28.74,0s19.76,10.82,26.81,17.57c5.16,4.95,9.93,11,10.62,18.13C2219.07,1152.29,2217.68,1157,2216,1161.48Z" transform="translate(0 0)"/><path class="cls-31" d="M2114.37,1145.91c.18-4.17-1.12-7.62-2.91-7.7s-3.39,3.25-3.57,7.42,1.13,7.62,2.92,7.7S2114.19,1150.09,2114.37,1145.91Z" transform="translate(0 0)"/><path class="cls-31" d="M2040.94,1134.51c.18-4.18-1.12-7.62-2.91-7.7s-3.38,3.24-3.56,7.42,1.12,7.62,2.91,7.69S2040.76,1138.68,2040.94,1134.51Z" transform="translate(0 0)"/><path class="cls-25" d="M2094.72,1209.51a34.54,34.54,0,0,1-8.93,2.48c-14.56,2.16-22.39-3.22-26.58-9.15a28.07,28.07,0,0,1-4.76-12.46c9.73,1.07,34.59,0,51.87-10.81C2106.32,1179.57,2113,1201.35,2094.72,1209.51Z" transform="translate(0 0)"/><path class="cls-32" d="M2125.78,1105a161.47,161.47,0,0,0-23.41-7.34c-2-.48-4-.85-6-1.32s-4-.76-6-1.14-4-.68-6-1c-1-.15-2-.33-3-.46l-3-.36-3-.39-3.05-.29c-2-.2-4-.39-6.09-.49-4.06-.32-8.14-.42-12.21-.45a102.32,102.32,0,0,0-24.32,2.44l2.9-1.09c.48-.18,1-.37,1.46-.53l1.5-.4,3-.79c1-.23,2-.4,3-.6s2-.39,3.07-.51l3.09-.37c2-.3,4.12-.35,6.19-.49s4.14-.15,6.22-.17,4.14.06,6.21.12,4.13.24,6.2.41l3.09.26,3.09.37a154.77,154.77,0,0,1,24.3,5A99.27,99.27,0,0,1,2125.78,1105Z" transform="translate(0 0)"/><path class="cls-32" d="M2108.49,1158c1.6.71,3.06,1.29,4.55,1.8s3,.94,4.45,1.3,3,.67,4.52.89a33.67,33.67,0,0,0,4.85.34,8.9,8.9,0,0,1-4.84,2,14.26,14.26,0,0,1-5.25-.33,14.56,14.56,0,0,1-4.8-2.12A9.89,9.89,0,0,1,2108.49,1158Z" transform="translate(0 0)"/><path class="cls-32" d="M2035,1148.23a6.35,6.35,0,0,1-2.36,2.54,7.88,7.88,0,0,1-3.29,1.14,7.46,7.46,0,0,1-3.5-.45,5.68,5.68,0,0,1-2.74-2.15c1.21-.1,2.22-.11,3.17-.17s1.85-.12,2.75-.22,1.8-.21,2.77-.35S2033.79,1148.29,2035,1148.23Z" transform="translate(0 0)"/><path class="cls-32" d="M2123.61,1179.57a19.88,19.88,0,0,1,4,4.43,25.5,25.5,0,0,1,2.74,5.32,22.13,22.13,0,0,1,1.37,5.86,15.41,15.41,0,0,1-.56,6l-1.76-5.54c-.58-1.78-1.2-3.53-1.86-5.27l-2-5.27C2124.87,1183.31,2124.17,1181.52,2123.61,1179.57Z" transform="translate(0 0)"/><path class="cls-32" d="M2042.57,1181.73c-.65,1.52-1.28,2.88-1.89,4.25l-1.87,4c-.64,1.35-1.32,2.7-2.1,4a20.11,20.11,0,0,1-2.79,3.87,20.46,20.46,0,0,1,.6-4.75,23.82,23.82,0,0,1,1.58-4.45,18.42,18.42,0,0,1,2.6-4A10.88,10.88,0,0,1,2042.57,1181.73Z" transform="translate(0 0)"/><path class="cls-33" d="M2077,1121.85c-2.7,3.94-5.32,7.92-8,11.88l-3.93,6-3.88,6c-.32.48-.64,1.07-1,1.63a16.4,16.4,0,0,0-1.49,3.6,10.31,10.31,0,0,0-.41,1.91,13.57,13.57,0,0,0,1.1,7.66,15.2,15.2,0,0,0,5,6.07c.57.36,1.12.73,1.69,1.06s1.21.57,1.82.82a8.58,8.58,0,0,0,3.89.7c.11-.35,0-.1,0-.18h0l0,0-.1-.06-.2-.12-.4-.24-.79-.45-1.46-1-1.33-1.11-1.19-1.19a16.46,16.46,0,0,1-3.24-5.5,16.68,16.68,0,0,1-.9-6.06,10,10,0,0,1,.14-1.54,12.22,12.22,0,0,1,.88-3c.23-.48.42-1,.73-1.49l3.41-6.24,3.37-6.26c2.2-4.2,4.45-8.37,6.61-12.58Z" transform="translate(0 0)"/><path class="cls-12" d="M2148.5,1125.69a58.41,58.41,0,0,0-15-10.92,64.94,64.94,0,0,0-25.3-7.14c-3.61-.26-7.49-1-10.35,1.67-2.14,2-1.88,4.85-2.5,7.46.09-.38,12.95.37,14.13.57,4.77.8,9.51,1.8,14.23,2.85a121.74,121.74,0,0,1,12.83,3.79C2140.64,1125.36,2144.21,1125.16,2148.5,1125.69Z" transform="translate(0 0)"/><path class="cls-12" d="M2019.65,1117.76c1.15-3.46,2.38-9.31,5.5-11.25,1.91-1.18,6-1.4,8.24-1.85,5-1,12.83-2.73,16.44,2.15.38.51,1.67,5.45.72,5.67a145.56,145.56,0,0,1-18.68,2.87C2029.5,1115.59,2020.73,1114.5,2019.65,1117.76Z" transform="translate(0 0)"/><path class="cls-16" d="M2373.24,1552.38c-9.85,23.61-85.92,169-99.5,194.88,6.82,15.52,3.3,35-5.32,49.33-3.25,4.32-5.41,9.73-9.73,10.81s-9.72,1.08-13-3.24c-4.33,4.32-7.57,7.56-13,9.73s-11.88,0-14-4.33c-3.24,3.24-9.73,4.33-14.05,4.33s-8.64-4.33-10.8-8.65c-3.25,2.16-9.73,4.32-14.06,1.08-5.39-3.24-5.39-10.81-4.31-16.21a33.93,33.93,0,0,1,8.64-16.21c-3.25-1.08-5.4-5.41-6.49-8.64a21,21,0,0,1,3.24-10.81c7.23-12.84,22.2-21.51,36.95-22.45,34.86-56,42.58-181.41,62.48-203.39,6.47-7.57-54-72.41-74.57-148-21.61-77.81-11.88-147,56.19-109.15,13,7.57,25.94,36.75,41.07,69.17C2322.45,1381.64,2384.05,1525.36,2373.24,1552.38Z" transform="translate(0 0)"/><path class="cls-18" d="M2261.93,1271.42c13,7.56,25.94,36.74,41.07,69.16,8.64,20.53,28.09,63.75,45.38,108.06-31.34,13-63.75,25.93-96.17,25.93-16.21-25.93-35.66-59.43-45.39-94C2184.13,1302.75,2193.85,1233.6,2261.93,1271.42Z" transform="translate(0 0)"/><path class="cls-17" d="M2223,1469.17c-5.4-21.61-13-58.35-20.53-86.45-21.61-78.88-8.65-152.37,59.43-111.3,13,8.64,25.94,36.74,41.07,69.16,7.56,16.21,27,47.54,41.06,84.28C2328.93,1440,2242.48,1477.81,2223,1469.17Z" transform="translate(0 0)"/><path class="cls-25" d="M2765.09,1104.64a27.67,27.67,0,0,1-3.79,3c-8.56,5.77-20.19,7-29-.23-2.4-2-3.15-7.82-4-12.85-.19-1.14-.38-2.24-.6-3.24a14.52,14.52,0,0,0-1.17-3.59c.72,1.32,40.38-6.73,45.39-6.48C2774.74,1090.16,2771.31,1098.74,2765.09,1104.64Z" transform="translate(0 0)"/><path class="cls-33" d="M2742.6,1024.34c-2.7,3.93-5.32,7.92-8,11.88l-3.93,6-3.88,6c-.32.47-.65,1.06-1,1.63a12.24,12.24,0,0,0-.84,1.75,11.14,11.14,0,0,0-.64,1.84,11.43,11.43,0,0,0-.42,1.91,13.71,13.71,0,0,0,1.11,7.67,15.27,15.27,0,0,0,5,6.07c.57.35,1.12.73,1.69,1s1.21.57,1.81.83a8.92,8.92,0,0,0,3.9.7c.11-.35,0-.1,0-.18h0l0,0,0,0-.1-.06-.2-.12-.4-.24-.79-.45-1.46-1-1.33-1.11-1.19-1.2a16.42,16.42,0,0,1-3.24-5.49,16.74,16.74,0,0,1-.9-6.06,9.91,9.91,0,0,1,.14-1.54,9.11,9.11,0,0,1,.34-1.53,8.85,8.85,0,0,1,.54-1.49c.23-.49.42-1,.73-1.49l3.41-6.24,3.37-6.26c2.2-4.2,4.45-8.37,6.6-12.59Z" transform="translate(0 0)"/><path class="cls-12" d="M2821.14,998.15a58.36,58.36,0,0,0-15-10.92,65,65,0,0,0-25.31-7.14c-3.6-.26-7.49-1-10.35,1.67-2.13,2-1.88,4.84-2.5,7.46.09-.38,12.95.37,14.13.57,4.78.8,9.52,1.8,14.24,2.85a121.57,121.57,0,0,1,12.82,3.79C2813.28,997.82,2816.85,997.62,2821.14,998.15Z" transform="translate(0 0)"/><path class="cls-12" d="M2692.29,990.22c1.15-3.46,2.38-9.31,5.51-11.25,1.9-1.18,6-1.4,8.23-1.85,5-1,12.84-2.73,16.45,2.15.37.51,1.66,5.45.71,5.67a145,145,0,0,1-18.68,2.87C2702.14,988.05,2693.37,987,2692.29,990.22Z" transform="translate(0 0)"/><path class="cls-33" d="M2781.15,1022.64a6.08,6.08,0,0,0,8.85,3.08,8.33,8.33,0,0,0,3.37-10.13,6.06,6.06,0,0,0-8.85-3.08A8.32,8.32,0,0,0,2781.15,1022.64Z" transform="translate(0 0)"/><path class="cls-33" d="M2704.24,1017c1.38,3.71,4.72,5.13,7.45,3.18s3.83-6.56,2.44-10.28-4.72-5.14-7.46-3.18S2702.85,1013.28,2704.24,1017Z" transform="translate(0 0)"/><path class="cls-33" d="M2806,1012.4a27,27,0,0,0-2.91-1.66c-1-.5-2-1-3.07-1.38a30.69,30.69,0,0,0-6.56-1.78,32.77,32.77,0,0,0-3.48-.39,11.72,11.72,0,0,0-3.6.43,13.84,13.84,0,0,0-3.48,1.55,11.27,11.27,0,0,0-2.89,2.67l.14.24c1.18-.34,2.25-.67,3.32-.92s2.13-.41,3.17-.55l3.18-.4a18.5,18.5,0,0,1,3.24-.2,27.41,27.41,0,0,1,3.25.28c1.08.13,2.16.32,3.23.55a41.14,41.14,0,0,1,6.32,1.84Z" transform="translate(0 0)"/><path class="cls-33" d="M2696.26,1001.17a66.62,66.62,0,0,1,6.76.4c1.12.12,2.24.27,3.35.45s2.21.38,3.3.64a27.58,27.58,0,0,1,3.17.93l3,1c1,.36,2,.73,3,1.15s2,.9,3.07,1.41l.2-.13a9.2,9.2,0,0,0-2.2-2.41,16.1,16.1,0,0,0-3.06-1.86,16.85,16.85,0,0,0-3.47-1.16c-1.19-.27-2.38-.44-3.56-.62a47.5,47.5,0,0,0-7-.5c-1.15,0-2.28,0-3.4.12s-2.23.17-3.32.33Z" transform="translate(0 0)"/><path class="cls-17" d="M2761.3,1107.67c-8.56,5.77-20.19,7-29-.23-2.4-2-3.15-7.82-4-12.85A50.26,50.26,0,0,1,2761.3,1107.67Z" transform="translate(0 0)"/><path class="cls-32" d="M2716.59,939.69a118.36,118.36,0,0,1,24.1-1.19,130.4,130.4,0,0,1,46.86,11.27,117.63,117.63,0,0,1,20.92,12,171.18,171.18,0,0,0-21.53-10.6,158.66,158.66,0,0,0-22.76-7.3A163.84,163.84,0,0,0,2716.59,939.69Z" transform="translate(0 0)"/><path class="cls-32" d="M2754.89,928.55a115.07,115.07,0,0,1,14.22,1.64c4.71.81,9.37,1.89,14,3.15s9.15,2.78,13.6,4.51a114.84,114.84,0,0,1,13,5.94c-4.53-1.5-9-3-13.54-4.46s-9-2.81-13.61-4.06-9.15-2.44-13.75-3.55S2759.55,929.6,2754.89,928.55Z" transform="translate(0 0)"/><path class="cls-32" d="M2767.56,1069.28a33.7,33.7,0,0,1,9,2.28,40.37,40.37,0,0,1,15.16,10.64,33.14,33.14,0,0,1,5.2,7.67,89.54,89.54,0,0,0-6.31-6.58,66.27,66.27,0,0,0-7-5.65,64.47,64.47,0,0,0-7.69-4.66A88,88,0,0,0,2767.56,1069.28Z" transform="translate(0 0)"/><path class="cls-32" d="M2721.06,1077.26a41.1,41.1,0,0,0-4.75,2.77,19.67,19.67,0,0,0-3.83,3.56,22,22,0,0,0-2.75,4.49c-.76,1.63-1.39,3.35-2.06,5.13a15.83,15.83,0,0,1,.6-5.67,14.36,14.36,0,0,1,2.66-5.2,13.75,13.75,0,0,1,4.59-3.65A13.91,13.91,0,0,1,2721.06,1077.26Z" transform="translate(0 0)"/><path class="cls-32" d="M2783.1,1040.32c2.35.09,4.58.24,6.79.28s4.39,0,6.57-.12,4.35-.35,6.54-.66,4.39-.7,6.72-1.06a19.85,19.85,0,0,1-6.16,3.35,25.58,25.58,0,0,1-6.92,1.36,25.87,25.87,0,0,1-7-.54A20,20,0,0,1,2783.1,1040.32Z" transform="translate(0 0)"/><path class="cls-32" d="M2705.73,1037.59a7.55,7.55,0,0,1-4,1.79,10.42,10.42,0,0,1-4.47-.39,10.22,10.22,0,0,1-3.89-2.23A7.51,7.51,0,0,1,2691,1033c1.32.7,2.46,1.31,3.62,1.83a31.83,31.83,0,0,0,3.46,1.32,33.63,33.63,0,0,0,3.59.9C2703,1037.27,2704.25,1037.42,2705.73,1037.59Z" transform="translate(0 0)"/><path class="cls-34" d="M1338.78,2347.77s15.1,53.45,5,71.26-12.39,15.88-15.88,14.33-7-8.52-13.17-5.81-15.13,27.46-15.13,27.46,30.63,4.3,46.12-3.44,39.51-41.06,32.92-101.09l-31.37-14.33Z" transform="translate(0 0)"/><path class="cls-34" d="M1169.13,2356.24s5.81,48,19.76,51.13,27.11-.39,34.85,4.65,10.85,21.3,14,25.56,14.33,0,14.33,0,13.94-10.84,1.94-33.7-23.4-13.16-40-21.3-2.63-31-2.63-31l-40.28-9.69Z" transform="translate(0 0)"/><path class="cls-34" d="M1107.22,2154.11s-4.4-30.91-16.3-34.39-8.74,33.74-8.74,33.74Z" transform="translate(0 0)"/><path class="cls-34" d="M1118.78,2149.42s29-38,42.22-35.25-4.31,69-4.31,69Z" transform="translate(0 0)"/><path class="cls-34" d="M1128.47,2157.55s25.37-35.94,31.37-34.08-9.3,54.61-9.3,54.61Z" transform="translate(0 0)"/><path class="cls-34" d="M1418,2220.15c26.56-37.66,52.61-55.88,41.16-105-3-13-6-26.11,14-13.73,26.56,16.41,4,63.3-9.2,81.27-11.37,15.48-64.69,48.42-55.36,70.47C1404.53,2243.37,1409.73,2231.94,1418,2220.15Z" transform="translate(0 0)"/><path class="cls-9" d="M1465,2409.11c-1.74,22.08-22.07,46.48-36,45.9s-33.14,0-33.14,0,6.42-30.21,14-34.28,19.75,2.91,19.75,2.91c9.88-11.62-13-53.45-13-53.45-39.51,9.87-58.5-18-58.5-18-93.53,27.88-180.68,0-180.68,0s-11,30.79-38.92,65.07-66.24,36.6-81.92,37.76-23.24-9.3-23.24-9.3,8.71-23.82,17.43-30.21,31.37,11.62,31.37,11.62c33.12-18.59,56.36-102.25,51.13-121.42s-43.58-48.8-51.71-54.61-46.25-.42-68.32-3.33c-9.88-1.3-18.71-14-25.45-27.63A231.47,231.47,0,0,1,974.35,2185c4-4.76,16.69-10.2,33.65-15.62,47-15,88.54-23.05,109-23.47,27.89-.58,41.83,54,60.42,61.58l70,1.07,121.19,1.84c55.78,7,80.11-2,93.54,63.33,2.23,10.78,1.9,24,.46,36.78a321.85,321.85,0,0,1-10.64,51.32S1466.79,2387,1465,2409.11Z" transform="translate(0 0)"/><path class="cls-34" d="M987.83,2220.13A231.47,231.47,0,0,1,974.35,2185c4-4.76,16.69-10.2,33.65-15.62C1012,2180.67,1017.13,2206.38,987.83,2220.13Z" transform="translate(0 0)"/><path class="cls-25" d="M1170.49,2194.73s-33.07,66.41-64.69,77.77c0,0-1,17.07,17,17.32,0,0,63.47-54.12,68-84.1C1184.31,2198,1180,2198.48,1170.49,2194.73Z" transform="translate(0 0)"/><path class="cls-34" d="M1462.6,2310.53a41.65,41.65,0,0,1-4.78-1c-11.07-2.81-22.78-9.48-33.07-4.55-9.51,4.57-13,17.31-22.54,21.77-8.32,3.88-18.5-.09-25.06-6.51s-10.64-14.89-15.73-22.54-11.94-15-21-16.73c-14.9-2.93-28.49,10-43.67,10.85-15,.77-28.84-11.73-31.72-26.49-1.58-8.13-.44-17-4.2-24.35-3.47-6.86-10.62-11.39-13.55-18.48a18.7,18.7,0,0,1,.09-14l121.19,1.84c55.78,7,80.11-2,93.54,63.33C1464.37,2284.53,1464,2297.71,1462.6,2310.53Z" transform="translate(0 0)"/><path class="cls-35" d="M1074.33,2168.45a23.77,23.77,0,0,1,27.29,25.43" transform="translate(0 0)"/><path class="cls-34" d="M1177.46,2207.51l18.2-16.6,18.27-16.54,36.55-33.06,73.4-65.77c24.45-21.94,49.1-43.65,73.69-65.44l73.88-65.23,74.3-64.76,37.23-32.29,18.65-16.1,18.73-16q37.5-32,75.28-63.63,19-15.72,38.16-31.2c6.41-5.13,12.85-10.24,19.37-15.25,3.26-2.49,6.55-5,9.89-7.35q2.51-1.8,5.07-3.5a29.18,29.18,0,0,1,5.37-3,29.69,29.69,0,0,0-5.29,3.13q-2.52,1.77-5,3.63c-3.28,2.47-6.5,5-9.7,7.58-6.42,5.12-12.76,10.34-19.07,15.6q-18.92,15.76-37.56,31.87-37.46,32-74.54,64.46l-74.23,64.81-74.05,65-148.18,130-74.14,64.93Z" transform="translate(0 0)"/></svg>